<svg height="1080" viewBox="0 0 1920 1080" width="1920" preserveAspectRatio="XMidYMax" style="background-color: #e0e0e0" xmlns="http://www.w3.org/2000/svg">
    <style>
        .animated {
            animation-duration: 0.25s;
            animation-iteration-count: infinite;
            animation-timing-function: frames(5);
        }
        #chocobo {
            animation-duration: 5s;
            animation-iteration-count: infinite;
            animation-name: chocobo;
            animation-timing-function: linear;
            opacity: 0.25;
        }
        @-webkit-keyframes chocobo {
            0%   { -webkit-transform: translate(1920px,860px); }
            100% { -webkit-transform: translate(-200px,860px); }
        }
        #frame-0 {
            animation-name: frame-0;
        }
        #frame-1 {
            animation-name: frame-1;
        }
        #frame-2 {
            animation-name: frame-2;
        }
        #frame-3 {
            animation-name: frame-3;
        }
        #frame-4 {
            animation-name: frame-4;
        }
        @-webkit-keyframes frame-0 {
            0%   {opacity: 1;}
            25%  {opacity: 0;}
            50%  {opacity: 0;}
            75%  {opacity: 0;}
            100% {opacity: 0;}
        }
        @-webkit-keyframes frame-1 {
            0%   {opacity: 0;}
            25%  {opacity: 1;}
            50%  {opacity: 0;}
            75%  {opacity: 0;}
            100% {opacity: 0;}
        }
        @-webkit-keyframes frame-2 {
            0%   {opacity: 0;}
            25%  {opacity: 0;}
            50%  {opacity: 1;}
            75%  {opacity: 0;}
            100% {opacity: 0;}
        }
        @-webkit-keyframes frame-3 {
            0%   {opacity: 0;}
            25%  {opacity: 0;}
            50%  {opacity: 0;}
            75%  {opacity: 1;}
            100% {opacity: 0;}
        }
        @-webkit-keyframes frame-4 {
            0%   {opacity: 0;}
            25%  {opacity: 0;}
            50%  {opacity: 0;}
            75%  {opacity: 0;}
            100% {opacity: 1;}
        }
    </style>
    <rect x="0" y="0" width="1920" height="1080" fill="#e0e0e0" stroke="none" stroke-width="0"/>
    <g id="chocobo">
        <g id="frame-0" transform="" class="animated">
            <path d="M29.935,142.622c4.143-3.036,9.144-2.711,13.85-3.445,5.3-.825,6.669-3.495,3.973-8.251-.491-.867-1.085-1.674-1.585-2.537-4.015-6.93-3.984-6.9,1.949-12.231a46.175,46.175,0,0,0,3.615-4.075c-3.514-.994-2.1-4.393-3.248-6.539a1.5,1.5,0,0,0-1.349-.326c-5.392,1.717-11.729,1.855-14.2,8.5-1.2,3.238-3.429,3.826-6.745,2.984C10.24,112.655.764,96.779,5.072,81.134a17.165,17.165,0,0,1,5.282-8.2c3.13-2.89,3.749-5.911,2.605-10.586-2.851-11.652.967-22.477,9.629-30.2A73.844,73.844,0,0,0,37.05,14.057c3.991-6.736,9.637-10.225,17.8-9.161,2.482.323,3.2.984,3.374,3.522.46,6.706,3.534,8.361,9.579,5.363,3.447-1.71,6.091-4.573,9.1-6.911C81.511,3.3,86.144-.093,92.7,1.77c4.487,1.276,6.666,4.27,7.324,8.429.81,5.114.994,10.158-2.747,14.628-2.1,2.512-1.773,4.414,2.333,4.394a114.364,114.364,0,0,1,11.941.9c5.8.582,8.726,3.255,10.158,9.326,7.734-4.929,15.059-10.386,23.8-13.4,3.5-1.207,5.2-1.4,6.026,3.1,1.661,9.094-.608,17.734-2.061,27.187,3.5-1.671,6.637-3.213,9.811-4.681a48.555,48.555,0,0,1,22.141-4.666c3.687.107,4,1.387,3.368,4.511-1.851,9.2-6.672,16.852-11.957,24.327-1.5,2.115-3.308,4.1-4.032,7.01,4.632.488,8.963,0,13.152,1.273,6.877,2.1,8.623,6.021,4.358,11.746-11.255,15.107-25.636,25.262-44.93,27.29-2.918.307-6.068.646-6.79,4.552-.567,3.066.482,5.257,3.639,5.032,2.789-.2,3.918.352,4.227,3.205.147,1.362,1.268,2.677,2.121,3.891,1.493,2.124,2.91,1.733,4.243-.277,2.254-3.4,3.8-3.377,5.858.195.9,1.565,1.316,3.409,2.2,4.991,3.447,6.2,6.073,12.75,8.892,19.243,2.7,6.224,8.693,9.877,14.507,13.254,4.3,2.5,8.7,4.865,12.829,7.626,4.082,2.73,4,6.21-.35,8.512a141.921,141.921,0,0,1-18.017,8.286,11.584,11.584,0,0,1-11.4-1.468c-3.51-2.692-7.984-3.017-12.127-4.088-5.915-1.529-8.15-4.1-8.06-10.146.095-6.346-.837-12.025-5.879-16.709-3.583-3.328-4.324-8.465-6.181-12.865-1.739-4.122-4.157-7.561-8.716-8.911a9.445,9.445,0,0,0-12.274,10.368c.076.492.044,1,.12,1.493,1.8,11.594-.7,13.993-11.651,10.638-4.269-1.308-6.626-1.742-6.659,4.181-.027,4.863-3.747,8.753-6.183,12.844-1.52,2.554-6.565,1.32-7.571-1.575-.324-.934-.492-1.921-.792-2.864-2.221-7.005-5.671-9.063-12.75-7.368-2.552.611-4.962,1.805-7.506,2.466-3.425.89-7.125,1.462-10.1-.8-6.774-5.148-14.648-6.542-22.74-7.656-7.427-1.022-8.131-3.031-3.639-9.263a4.084,4.084,0,0,1,2.118-.561c3.585,5.156,9.257,5.346,14.667,6.078a42.653,42.653,0,0,1,8.125,1.839c1.285-.07,1.745,4.066,3.666.679a3.62,3.62,0,0,1,2.7-1.219,5.2,5.2,0,0,1,3.27,1.617,6.838,6.838,0,0,0,3.635,1.363,27.083,27.083,0,0,0,5.478-.147c7.547-1.209,14.228-.26,18.483,7.455,1.375-2.593.791-4.783.9-6.878.322-6.328,1.381-7.364,7.833-7.483,2.175-.04,4.3.409,6.443.551,4.042.268,5.647-1.689,4.494-5.473-1.389-4.557-3.72-7.654-9.181-8.372a32.753,32.753,0,0,1-24.565-16.076c-1.771-2.9-3.767-6.024-1.893-9.764a3.032,3.032,0,0,1,1.824-1.261c3.3-.242,3.969,2.562,5.174,4.621,5.754,9.828,13.825,16.236,25.559,16.649,12.865.452,22.868-5.035,28.318-16.686,3.27-6.99,7.613-10.226,15.269-11.018,12.739-1.317,23.366-7.32,31.672-17.209a30.97,30.97,0,0,0,2.464-3.139c2.608-4.069,1.747-6.244-3.028-6.727-7.02-.711-13.962-.3-20.613,2.467-1.788.743-3.557,2.008-5.7,1.032a3.013,3.013,0,0,1-1.41-1.713c-.382-3.214,1.966-4.721,4.283-5.334,13.563-3.59,18.363-15.525,24.95-25.762.78-1.212,1.9-2.737.923-4.146-1.165-1.683-3.086-.774-4.635-.471a62.178,62.178,0,0,0-28.383,13.917,31.926,31.926,0,0,1-3.105,2.509,2.876,2.876,0,0,1-3.289.132,2.95,2.95,0,0,1-1.254-3.494,31.439,31.439,0,0,1,2.814-6.385,65.53,65.53,0,0,0,6.406-16.736,20.717,20.717,0,0,0,.541-5.946c-.322-3.959-2.149-5.053-5.654-3.116a39.708,39.708,0,0,0-12.855,10.894,65.432,65.432,0,0,0-8.631,16.255c-.929,2.446-.756,4.355,2.663,4.126,3.384-.227,5.516,1.543,6.052,4.7.688,4.044,3.182,4.867,6.749,5.023,7.448.326,9.21,3.456,6.117,10.357a4.018,4.018,0,0,1-2.845.846c-3.333-3.613-7.085-4.687-12-3.065-2.773.916-4.653-1.2-4.95-4.186-.151-1.516-.124-3.215-1.936-3.652-1.968-.475-3.225,1.023-3.947,2.461-3.033,6.04-7.488,8.668-14.541,8.816-7.207.151-13.846,3.384-19.578,8.029-.9.731-1.861,1.406-2.814,2.078-1.34.945-2.766,1.286-4.144.194-1.449-1.149-1.134-2.613-.472-4.073.969-2.137,2.448-3.967,3.584-6,1.393-2.494,1.652-4.732-1.372-6.288-1.794-.923-3.034-2.3-2.123-4.411.889-2.062,2.922-1.94,4.763-1.9,3.782.091,6.463,2.374,9.126,4.658.395.121.782.267,1.182.366,6.2-1.137,8.776-3.322,9.361-9.2.546-5.49,1.952-11.495-4.575-15.025a2.644,2.644,0,0,1-.927-3.556c.636-1.376,1.887-1.737,3.347-1.6,1.495.142,2.959.5,4.449.627,5.816.5,11.479-2.824,13.274-7.754,1.616-4.439.272-7.006-4.242-8.27-4.565-1.279-8.915.122-13.3,1-2.5.5-4.976,1.265-6.577-1.65C85.724,30.007,85.523,27,88.6,24.259a12.135,12.135,0,0,0,4.435-10.608c-.43-4.875-3.808-6.611-8.1-4.258a28,28,0,0,0-9.151,8.372c-3.293,4.573-7.34,6.5-12.92,5.2q-6.211-1.455-10.028,3.84c-1.437,2-3.443,3.633-5.869,1.631-2.248-1.855-.751-3.852.432-5.737,1.321-2.106,2.909-4.123,3.284-6.673.4-2.74-1.01-3.848-3.511-2.66-3.34,1.586-5.27,4.589-6.738,7.781a40.283,40.283,0,0,1-9.64,13.194C20.74,43.464,16.926,54.409,21.329,67.672a7.284,7.284,0,0,1,.371,2.461,10.256,10.256,0,0,1-4.712,7.691c-3.629,2.344-4.646,6.4-4.666,10.523a23.118,23.118,0,0,0,6.9,16.617c3.812,3.93,6.888,3.806,11.416.824,6.611-4.354,13.815-7.043,21.968-6.027,1.921.924,3.354,2.542,5.568,3.174,3.84,1.1,4.812,3.488,3.468,7.3a27.175,27.175,0,0,1-5.695,8.746c-2.852,3.229-2.293,5.769.536,8.622,4.217,4.253,4.13,4.358.511,9.153-1.493,1.978.019,2.76,1.431,3.271,2.5.9,5.271.863,7.709,2.017,2.859,1.353,5.919,2.574,5.84,6.574a3.1,3.1,0,0,1-1.386,1.763,3.734,3.734,0,0,1-3.339.38c-3.043-1.078-5.764-.874-8.337,1.409-1.757,1.56-3.987,1.406-5.129-.713-3.485-6.468-9.367-5.84-15.212-5.535-2.875.15-5.8,1.956-8.613-.244A2.637,2.637,0,0,1,29.935,142.622Z" fill="#070707"/>
            <path d="M51.93,168.1l-1.867,1.085a2.058,2.058,0,0,1-1.291.422c-3.928-2.744-7.544-5.925-11.76-8.274-3.33-1.855-6.625-3.142-10.332-.975A2.777,2.777,0,0,1,23.4,160.2l-2.779-.261c2.33-3.611,5.737-6.483,3.13-11.986-1.018-2.15,3.775-3.779,6.187-5.33l1.244,2.5c1.364,4.172,4.552,6.609,8.106,8.814,4.191,2.6,8.367,5.271,11.581,9.126C52.1,164.541,53.84,165.945,51.93,168.1Z" fill="#0a0a0a"/>
            <path d="M51.93,168.1c-2.1-4.377-6.074-6.833-9.817-9.485-3.637-2.577-7.4-4.983-11.1-7.459-3.152-2.1-3.338-4.119.17-6.034a29.99,29.99,0,0,1,19.5-.532c3.3,1,6.562,2.289,4.763,7.661,2.959-1.816,2.343-6.158,6.366-5.472a38.011,38.011,0,0,1,8.072,2.422c5.9,2.772,11.44,6.712,17,5.561-4.9-.417-11.5-.549-15.81-6.536a16.882,16.882,0,0,0-11.4-5.279,13.906,13.906,0,0,1-4.736-1.358c-1.671-.743-4.572-1.044-3.551-3.749.785-2.079,1.455-5.545,5.384-3.878.536.227,1.275-.026,2.338-.076-1.831-3.208-4.691-4.9-7.07-7-2.635-2.331-2.84-4.312-.332-6.971,2.925-3.1,5.888-6.2,7.588-10.314,1.389-3.364.616-4.838-2.956-4.444-3.108.343-4.806-.487-4.305-3.923-.287-.395-.856-.759-.869-1.148-.157-4.544-2.339-6.925-6.97-7.463a2.874,2.874,0,0,1-2.47-3.989c1.347-2.077,3.667-1.552,5.564-1.936C54,85.336,57.474,81.5,57.493,75.07c.021-7.111-3.3-11.174-10.15-12.426-5.989-1.094-11.625,2.334-13.817,8.228-.711,1.911-.508,4.156-2.074,5.757-5.165.333-10.68-2.623-12.192-6.531-5.866-16.547-.111-29.485,12.574-40.207a17.719,17.719,0,0,0,4.733-6.818c2.49-5.693,5.487-11.044,11.839-13.44,4.881-1.841,5.89-1.186,5.5,3.9-.351,4.525-2.8,8.054-5.479,11.472-.587.749-1.526,1.341-1.168,2.622,2.225.979,3.079-.987,3.706-2.209,2.944-5.737,7.921-6.031,13.153-4.858,3.953.887,6.572-.039,9.008-3.294,3.389-4.528,7.307-8.657,12.525-11.2,4.7-2.288,8.135-.739,9.506,4.274,1.584,5.791.474,11.149-4.24,14.863-2.589,2.04-3.423,3.256-.889,5.589,1.38,1.27,1.022,3,.891,4.782,6.689-1.223,12.867-3.478,19.457-1.664,6,1.652,6.822,2.7,5.554,8.576-2,9.29-9.884,14.132-18.974,11.677-1.384-.374-2.793-.653-4.449-1.036a6.108,6.108,0,0,0,.662,1.189c2.16,2.061,6.438,1.6,6.825,5.784.62,6.7.891,13.559-2.646,19.441-2.043,3.4-6.946,3.5-10.353,5.494-2,.589-1.349-.993-1.542-1.883-2.9-4.194-6.812-5.844-11.957-4.955.788,2.883,3.111,1.5,4.628,2.067,2.845,1.054,4.748,2.258,2.459,5.678-2.545,3.8-4.781,7.812-7.478,12.272,3.44-.6,4.938-3.276,6.948-4.771a38.932,38.932,0,0,1,24-7.985c2.344.008,3.735-.655,4.829-2.564a38.188,38.188,0,0,1,7.069-8.953c1.344-1.26,2.655-1.961,4.369-1.689,2.116.336,1.159,2.484,1.891,3.525,1.661,2.363-1.55,5.862,1.014,6.99,1.774.781,4.61-1.075,7.018-1.466,5.708-.925,6.273-.389,6.885,5.787-.059,6.441,3.038,11.4,6.66,16.516,2.443,3.454-1.855,5.234-4.266,7.065,5.853-4,6.045-4.288,2.106-10.368-2.4-3.711,1.181-4.859,2.413-7.045a7.655,7.655,0,0,1,4.382-1.993c10.114-6.056,20.84-6.564,32-3.648,3.155.825,3.446,2.068,1.755,4.823-9.952,16.211-24.442,25.028-43.284,26.422-3.812.282-5.336,1.66-6.715,4.97-6.306,15.13-17.211,22.333-33.222,22.014-13.231-.263-21.77-7.741-27.777-18.816l-2.126-3.917a5.8,5.8,0,0,1-1.671-1.79,10.932,10.932,0,0,0,.306,1.24,5.5,5.5,0,0,0,.274,1.742c1.67,11.182,12.349,20.906,25.121,22.8,3.579.532,7.182.9,11.374,1.424-2.444,1.9-2.314,3.856-.691,5.954a12.67,12.67,0,0,1,1.546,3.123c2.5,6.313.876,8.656-5.813,8.245-2.967-.182-5.921-.6-8.873-.978-3.722-.474-5.191,1-4.675,4.8a48.4,48.4,0,0,1,.3,7.966c-.065,2.127-.279,4.351-3.291,6.041-3.6-13.9-13.55-13.5-24.474-10.694-1.813-.672-4.2-.065-5.289-2.354C53.511,169.419,52.2,169.02,51.93,168.1Z" fill="#d2d2d2"/>
            <path d="M138.912,86.119c.465-7.205.453-7.466-6.494-7.157-4.962.221-8.819.425-7.478-6.584.548-2.866-1.7-4.083-4.6-3.026-.777.283-1.481.781-2.268,1.015-1.473.437-3.08,2.089-4.444.756-1.259-1.232.447-2.714.828-4.071,4.008-14.26,11.24-26.214,24.535-33.7,2.38-1.341,5.2-3.927,7.52-2.533,2,1.2,1.347,4.867,1.437,7.534.271,8.1-2.593,15.325-6.155,22.357a91.719,91.719,0,0,0-4.6,9.892c12.455-11.7,26.791-18.626,44.033-19.523-.216,3.924-1.81,6.872-3.534,9.685-3.3,5.385-6.79,10.657-10.232,15.955-3.033,4.669-7.485,7.395-12.656,9.118a18.752,18.752,0,0,0-7.652,4.466c-.705,1.7-2.13,2.812-3.357,4.092-1.579,1.395-3.085,3.523-5.477,1.845-2.134-1.5-1.318-3.918-.9-5.942A18.434,18.434,0,0,1,138.912,86.119Z" fill="#d2d2d2"/>
            <path d="M148.933,175.178c-.816-2.6-3.364-3.543-5.046-5.312-4.407-4.634-8.117-9.882-9.359-16.176-1.035-5.246-3.769-8.3-8.644-9.614-1.738-.468-2.437-1.047-1.37-2.6,2.2-3.2,4.747-5.924,9.018-6.283,3.776-.317,5.8.942,6.468,4.989.852,5.13,2,10.4,7.736,13.074,1.428-3.86.727-7.719,2.41-11.045.433-.855.772-2.082,1.967-1.807a2.585,2.585,0,0,1,1.56,1.712c1.276,6.875,6.578,12.1,6.983,19.594.385,7.121,6.483,11.318,12.085,14.982a156.218,156.218,0,0,0,15.914,9.224c4.353,2.164,3,3.8.143,5.734-4.043,2.735-8.752,2.871-13.379,3.291-2.035-.7-3.284,1.641-5.214,1.367-1.371-.1-2.411-1.05-3.672-1.443-1.78-1.412-2.547-3.758-4.565-4.953-.389-.526-.89-1.243-1.391-1.317C152.83,187.443,150.811,181.381,148.933,175.178Z" fill="#d2d2d2"/>
            <path d="M19.26,70.1c3.389,3.025,8.9,1.956,11.724,6.067.332-.037.765-.121.952.078C35.7,80.231,38.81,84.735,42.09,89.1a11.145,11.145,0,0,0,6.491,1.921c5.306,0,6.053.958,4.691,5.958-.387,1.423-.827,2.831-1.243,4.246-8.172,2.073-17.275,1.994-22.94,9.875-.929,1.292-1.992.667-3.106.4-9.233-2.246-13.619-9.15-15.667-17.5C8.4,86.19,9.222,78.651,17.457,74.3,19.472,73.233,19,71.634,19.26,70.1Z" fill="#b5b5b5"/>
            <path d="M23.4,160.2c6.986-5.369,7.026-5.436,14.811-.892,4.273,2.494,8.664,4.951,10.939,9.734-1.2,2.4-1.514,2.421-4.323.227-7.109-1.146-14.311-1.909-21.295-3.578C19.106,164.633,22.773,162.088,23.4,160.2Z" fill="#cfcfcf"/>
            <path d="M167.337,193.141l2.693.684c1.021,1.381,3.3.246,4.109,2.058,2.1,1.438,2.115,1.468.888,2.06-2.621,1.263-5.188.516-7.674-.4-4.482-1.661-8.892-3.247-13.789-3.646-4.356-.355-6.2-3.955-6.988-7.942a16.27,16.27,0,0,1-.152-7.428c1.96,1.018,1.593,3.262,2.774,4.546,3.112.964,4.2,5.332,8.193,4.8C161.212,188.673,163.909,191.589,167.337,193.141Z" fill="#c8c8c8"/>
            <path d="M138.912,86.119c-.062,1.153-.117,2.307-.188,3.46-.116,1.893-1.579,4.313.444,5.486,1.636.949,3.125-1.279,4.68-2.1,1.067-.425,1.28.142,1.208,1.04-2.576,2.665-3.554,5.037-.336,8.309,2.815,2.863.505,5.477-1.942,7.489-2.638,2.168-6.206,3-8.483,6.179-1.474-2.22-.848-3.491,1.1-4.466a41.992,41.992,0,0,0,4.375-2.336c3.987-2.622,4.572-4.908.816-7.758-5.393-4.093-5.7-8.74-3.466-14.332Z" fill="#0a0a0a"/>
            <path d="M71.067,148.227c6.3,3.269,12.88,5.345,20.1,4.855a5.864,5.864,0,0,1,2.887.443,2.517,2.517,0,0,1,1.632,2.8c-.326,1.253-1.634.965-2.52.893-2.643-.216-5.272-.606-7.906-.925-.5-.06-1.079-.3-1.48-.123-7.427,3.215-9.645-3.9-13.9-6.967Z" fill="#0b0b0b"/>
            <path d="M111.043,56.867c-1.15,6.166-.7,12.222-2.9,17.786-.591,1.491-1.179,3.644-3.155,3.062-1.642-.484-.981-2.646-.834-3.994.517-4.746,1.882-9.348,2-14.2C106.214,57.147,109.38,58.066,111.043,56.867Z" fill="#fafafa"/>
            <path d="M148.933,175.178c2.065,7.352,8.606,10.088,14.215,13.784-1.489,3.286-3.942,1.229-6.048,1.093-4.332-.953-6.133-4.084-6.939-8.071Z" fill="#939393"/>
            <path d="M44.824,169.268c1.458.24,2.946,1.069,4.323-.227a5.726,5.726,0,0,1,.916.145c-.107,1.84,1.775,2.714,2.391,4.592C48.137,174.839,46.305,172.356,44.824,169.268Z" fill="#959595"/>
            <path d="M150.162,181.985c1.964,2.743,3.126,6.231,6.836,7.35.1.949-.18,1.4-1.181.907-4.462-.309-5.315-3.949-6.619-7.172Z" fill="#0d0d0d"/>
            <path d="M67.106,118.287c1.472,1.277,1.726,3.044,1.94,4.827l-1.091,1.192-.888-1.192A5.424,5.424,0,0,1,67.106,118.287Z" fill="#1e1e1e"/>
            <path d="M145.056,94.007l-1.208-1.04a7.475,7.475,0,0,1,3.3-2.668l1.266.967A7.834,7.834,0,0,1,145.056,94.007Z" fill="#0f0f0f"/>
            <path d="M85.449,83.154l1.542,1.883c-.875,1.319-2.1,1.028-3.549.85Z" fill="#cacaca"/>
            <path d="M53.191,170.632l5.288,2.354C56.319,173.1,54.274,172.945,53.191,170.632Z" fill="#0a0a0a"/>
            <path d="M174.139,195.884c-1.411-.6-3.434.014-4.109-2.058,1.746.613,3.784-.182,5.387,1.118Z" fill="#0a0a0a"/>
            <path d="M42.09,89.1c-5.936-2.4-7.938-8.168-11.1-12.941.879-11.473,8.492-17.665,18.429-14.99,6.146,1.655,9.318,5.47,9.676,11.639.46,7.918-1.95,12.32-8.251,14.72A22.779,22.779,0,0,1,42.09,89.1Z" fill="#fcfcfc"/>
            <path d="M67.106,118.287q-.02,2.414-.04,4.827c-1.162-2.251-.989-4.608-.686-7.1C67.377,116.664,66.964,117.552,67.106,118.287Z" fill="#7d7d7d"/>
            <path d="M155.817,190.241l1.181-.907a6.916,6.916,0,0,0,6.15-.372c1.565,1.224,3.323,2.254,4.189,4.179A58.283,58.283,0,0,1,155.817,190.241Z" fill="#121212"/>
            <path d="M44.667,85.094c-6.473-.045-10.7-4.1-10.481-10.051C34.394,69.3,40,63.954,45.641,64.118A10.809,10.809,0,0,1,56.072,74.711C56.165,80.781,51.375,85.141,44.667,85.094Z" fill="#454545"/>
            <path d="M49.63,71.339c-.324.993-.748,1.953-2,1.434-1.038-.431-2.02-1.13-1.752-2.5a1.56,1.56,0,0,1,1.828-1.182C49.129,69.161,49.551,70.127,49.63,71.339Z" fill="#ececec"/>
        </g>
        <g id="frame-1" transform="" class="animated">
            <path d="M0,82.355A25.534,25.534,0,0,1,7.722,70c2.061-1.781,3.288-4.476,1.789-7.167-4.89-8.78,2.3-27.624,9.64-32.874C24.623,26.049,28.339,21,31.472,15.248,35.5,7.848,40.853,2.47,50.288,3.276c2.749.235,3.647,1.022,3.8,3.821.346,6.442,3.779,8.186,9.69,5.292,4.4-2.153,7.484-6.007,11.428-8.759A18.3,18.3,0,0,1,84.309.049c6.665-.532,11.2,3.268,11.665,9.956.318,4.617.586,9.148-2.867,13.168-2.685,3.126-.643,4.705,2.738,5.081,4.442.493,8.915-.34,13.389.924,4.665,1.318,7.8,3.522,7.993,9.92,4.495-7.284,10.342-11.632,16.792-15.323a76.54,76.54,0,0,1,13.126-5.829c2.683-.928,3.312-.255,3.966,2.367,2.379,9.535-.421,18.648-1.857,28.487,3.491-1.673,6.68-3.236,9.9-4.738a48.5,48.5,0,0,1,22.074-4.8c3.51.089,4.145,1.061,3.44,4.392-2.151,10.169-7.794,18.468-13.582,26.747-.911,1.3-2.844,2.675-1.945,4.277.84,1.5,3.028.691,4.583.625a23.956,23.956,0,0,1,9.23,1.619c5.926,2.146,6.99,5.382,3.5,10.71-7.736,11.817-18.792,19.461-31.658,24.725a34.134,34.134,0,0,1-13.952,3.01,5.239,5.239,0,0,0-4.387,2.012,58.634,58.634,0,0,0-7.694,12.562c-1.2,2.752-.331,4.192,2.226,4.8,2.632.624,3.891,1.663,3.09,4.656-.565,2.112-.037,4.621,1.739,5.848,1.8,1.245,2.793-1.116,3.934-2.147,1.587-1.434,2.378-.166,3.225.8a7.316,7.316,0,0,1,1.7,6.038c-1.209,6.009,3.527,11.245,1.775,17.459-.436,1.547,2.682,4.27,4.421,6.224,4.622,5.194,10.882,8.037,16.792,11.372,2.739,1.545,5.573,2.965,8.137,4.763,3.155,2.212,3.353,5.92.118,7.729a153.6,153.6,0,0,1-19.528,9.568,11.114,11.114,0,0,1-11.338-1.795,13.321,13.321,0,0,0-7.828-2.868c-9.273-.46-14.042-6.386-15.016-14.409-1.2-9.9-5.29-19.11-5.956-28.974a35.389,35.389,0,0,0-4.691-15.453,6.89,6.89,0,0,0-9.68-2.154c-1.992,1.389-.253,2.223.392,3.141,2.23,3.174,4.66,5.979,5.354,10.244.6,3.667-.721,4.89-3.493,5.725a70.271,70.271,0,0,1-7.685,1.848c-3.345.609-4.549,2.406-3.248,5.54a26.2,26.2,0,0,1,1.74,12.7c-.27,2.892-1.051,4.589-4.571,2.434-10.591-6.485-14.964-5.954-23.38,2.984-4.2,4.46-8.585,6.71-14.963,5.489-7.115-1.362-13.576,1.887-20.085,4.3-6.308,2.343-8.975.207-7.856-6.4.77-4.548,2.766-9.1-2.633-12.377-1.263-.768.13-2.1.537-3.1,2.991-7.36,8.42-12.042,15.827-14.751,9.295-3.4,18.756-5.356,28.7-4.278,6.539.709,12.271-1.219,18.082-5.637-10.281-4.411-19.743-9.249-29.8-12.763-1.554-.543-3.064-1.239-4.647-1.664-2.076-.558-2.807-1.973-1.941-3.682,1.862-3.674.286-6.495-1.339-9.73-1.673-3.33-6.5-6.755-1.113-11.139a13.677,13.677,0,0,0-1.117-6.122c-1.123-2.023-2.983.072-4.454.287-5.3.775-9.835,2.969-11.912,8.389-1.244,3.246-3.822,2.872-6.222,2.243C11.006,112.183,4.108,105.03.99,94.118.722,93.179.333,92.275,0,91.355Z"/>
            <path d="M56.915,181.433c-7.873-4.291-16.764-3.531-25.193-5.061-1.933-.351-4.506.057-5.327-1.948-.958-2.339,1.389-3.945,2.827-5.376a28.222,28.222,0,0,1,14.434-7.477c3.6-.753,7.4-1.219,8.405,4.627,1.846-3.037-.67-6.906,3.487-8.137a25.707,25.707,0,0,1,8.868-.829c2.727.146,5.1,1.411,7.628,2.179,1.376.417,4.011,3.177,3.8-1.425-.021-.448,1.544-1.1,2.454-1.433,1.866-.69,3.815-1.158,5.679-1.854,2.11-.789,6-1.656,5.5-3.2-.836-2.6-2.706-5.689-6.021-6.545a47.826,47.826,0,0,1-17.248-8.52c-2.984-2.268-7.749-.973-11.255-3.137-1.476-.911-2.972-1.873-2.787-3.749.122-1.234.642-2.927,1.55-3.474,1.493-.9,3.458,1.043,5.325-.22-1.122-2.584-3.72-3.7-5.611-5.465-4.743-4.437-4.781-4.6-.631-9.416,2.864-3.326,6.127-6.455,7.014-11.335-2.666-.1-3.955,1.724-5.628,2.911-3.614,2.565-5.832,1.432-6.246-3.069-.461-.682-1.394-1.219-1.346-2.04.227-3.909-2.212-4.994-5.42-5.8-2.4-.6-5.624-1.012-4.482-5.023,1.283-1.639,3.137-1.1,4.792-1.212C47.993,84.955,53.2,80.742,53.5,75.125c.421-7.908-2.121-11.467-8.261-13.519-5.741-1.919-10.874-.582-15.185,6.588-1.3,2.159-.89,4.807-2.563,6.724-5.074.607-10.738-2.41-12.339-6.564-6.046-17.349.661-30.4,14.006-41.1,1.742-1.4,2.192-3.207,2.986-4.981,2.769-6.183,6.032-11.895,12.928-14.4,3.372-1.227,4.954-.516,4.825,3.414-.127,3.9-1.858,7.016-3.927,10.056-1.209,1.776-2.558,3.457-4.169,5.615,3.16.756,4.18-1.292,5.217-2.928,3.056-4.82,7.023-6.546,12.725-4.932,3.914,1.108,7.235.088,9.781-3.863a30.06,30.06,0,0,1,12.7-10.906c3.933-1.838,7.174-.361,8.657,3.709,2.012,5.524.411,12.338-4.3,15.795-2.426,1.78-3.4,3.027-.81,5.2,1.615,1.355.771,3.413,1.477,5.22A41.114,41.114,0,0,1,106,32.413c5.759.819,7,2.717,5.832,8.369C109.82,50.525,101.6,55.314,91.979,52.367c-1.074-.329-2.174-.573-3.361-.883.056.511-.015.865.129,1.028,2.171,2.461,7.029,1.892,7.218,6.657.291,7.321.548,14.591-4.311,21.391,4.9-1,9.283-3.993,14.48-2.739,1.471.355,2.139-1.89,2.914-3.105,1.973-3.1,3.917-6.2,6.938-8.412,4.1-3,5.2-2.358,6.456,2.6.636,2.5-.966,4.444-.757,7.15,3.478-.923,6.732-1.948,10.057-2.624,3.531-.718,5.446.74,5.064,4.566a8.968,8.968,0,0,1-.131,1.986c-1.932,5.55-1.262,10.094,3.964,13.808,3.4,2.417,2.786,5.378-.8,7.515-1.428.851-2.906,1.628-4.406,2.345-1.978.946-2.6,2.29-1.357,5.016,2.1-3.242,5.335-4.207,7.96-6.1,4.459-3.208,4.91-5.028,1.648-9.35-1.648-2.184-1.5-3.525.259-5.5,7.764-8.7,27.392-12.533,37.68-7.42,2.474,1.23,1.579,2.39.7,3.851-8.547,14.159-20.661,23.528-37.162,26-7.143,1.072-12,2.636-15.587,10.212-6.368,13.458-18.565,18.777-33.384,17.858-8.775.659-21.289-7.175-25.742-17.5a52.891,52.891,0,0,0-3-6.628c.282.468.52.861.738,1.3,3.992,11.751,11.9,19.383,23.8,22.826,1.135.328,2.343.486,2.272,2.087-1.582,1.809-1.945,3.447.6,4.753a16.877,16.877,0,0,1,1.643,1.126c2.813,1.9,6.037,4.125,5.767,7.6-.3,3.8-4.683,3.392-7.389,4.65-.451.21-.9.418-1.371.588-9.182,3.345-9.179,3.343-4.235,11.84.584,1,1.167,2.011,1.665,3.058.874,1.836,1.907,4.212.467,5.629-1.76,1.732-3.131-.86-4.42-1.788-5.874-4.229-11.435-3.354-16.944.618C66,180.852,62.021,183.56,56.915,181.433Z" fill="#d2d2d2"/>
            <path d="M136.436,63.017c2.347-.1,2.981-1.641,3.986-2.579,10.458-9.771,23.01-14.933,37-17.007,3.305-.49,4.381.683,2.937,3.774a105.1,105.1,0,0,1-17.1,26.2,11.971,11.971,0,0,1-4.545,2.962c-5.962,2.254-11.537,5.052-16.171,9.56-.866.842-2.121,2.054-3.467,1.346-1.423-.749-.806-2.363-.718-3.653.2-2.984.4-5.969.669-8.948.341-3.806-1.719-4.619-4.94-4.08-1.311.22-2.631.382-3.937.625-3.384.629-4.8-.836-5.106-4.194-.62-6.9-.723-6.885-7.426-4.179-1.067.431-2.162.793-3.947,1.443A54.81,54.81,0,0,1,126.7,35.476,45.632,45.632,0,0,1,144.03,23.161c2.207-.929,2.8-.453,3.24,1.735,1.749,8.745-.317,16.847-3.995,24.664C141.186,54,138.836,58.317,136.436,63.017Z" fill="#d2d2d2"/>
            <path d="M121.167,162.276c-.686-4.271-1.373-8.532-.372-12.864.866-3.748-2.265-5.358-4.388-7.165-2.575-2.191-1.875-3.465.522-4.709,2.042-1.06,4.059-2.249,6.518-2.18,4.693.132,6.48,2.308,6.475,6.974-.006,5.265-1.691,11.031,3.462,15.45,1.742-3.2,3.313-6.257,5.063-9.206.555-.934,1.406-2.181,2.66-1.922,1.461.3,1.343,1.947,1.144,2.915-1.279,6.218,2.907,12.161.566,18.567-1.02,2.791,1.866,5.16,3.746,7.179,4.581,4.921,10.4,8.155,16.238,11.327,2.771,1.507,5.522,3.066,8.379,4.393,3.46,1.608,2.569,3.221.2,4.94-4.909,3.568-10.577,3.473-16.253,3.309-1.732-.681-3.758.033-5.388-1.136a41.5,41.5,0,0,0-5.665-2.64,7.762,7.762,0,0,0-4.244-2.832c-3.684-.7-5.8-3.376-7.746-6.174.027.052-.122-.228-.11-.2s.095.276.114.307c1.9,5.2,5,8.773,11.027,8.866,2.121.033,3.927,1.287,5.774,2.252,1.349.9,3.193.939,4.182,2.446l5.726,1.846c-4.236,2.182-7.686,1.119-11.058-.151-3.578-1.347-7.1-2.611-11.042-2.583-3.282.024-5.451-1.9-6.933-4.83-2.57-5.077-4.685-10.218-3.84-16.09a6.83,6.83,0,0,0-.629-5.615C123.655,169.377,122.56,165.763,121.167,162.276Z" fill="#d2d2d2"/>
            <path d="M15.147,68.354c3.372,3.07,8.777,2.209,11.739,6.071.333-.042.771-.14.965.054,3.778,3.777,6.529,8.288,9.132,12.9,2.451,1.556,5.264,2.735,8.011,2.293,5.382-.865,5.135,1.921,4.209,5.5-.374,1.448-.841,2.872-1.266,4.306-4.471,1.136-8.961,2.2-13.406,3.435a18.578,18.578,0,0,0-7.051,3.548c-4.629,3.88-7.417,4.094-12.009.723C8.062,101.749,3.741,90.1,6.19,81.4c.951-3.377,2.692-6.542,6.208-7.993C14.822,72.407,15.448,70.7,15.147,68.354Z" fill="#b5b5b5"/>
            <path d="M51.007,186.306c-6.624.869-12.7,3.661-19.07,5.419-1.37.378-2.879,1.371-4.156.118s-.46-2.784-.043-4.221c2.122-7.32,2.187-7.388,9.9-7.311,5.316.053,10.661-.021,15.426,2.937C55.984,186.689,52.867,186.076,51.007,186.306Z" fill="#cfcfcf"/>
            <path d="M110.56,52.148c-2.054,7.577,1.173,17.566-10.475,20.2.636-4.278,1.714-8.4,1.753-12.527C101.9,53.528,109.431,56.574,110.56,52.148Z" fill="#f5f5f5"/>
            <path d="M67.033,110.716q2.56,5.008,5.119,10.017c5.046,9.91,13.621,14.968,24.039,17.494l-1.932,2.082c-1.618-1.292-3.653-1.415-5.529-2C77.231,134.7,69.846,127.17,67,115.357A4.8,4.8,0,0,1,67.033,110.716Z" fill="#131313"/>
            <path d="M121.167,162.276c3.269,3.665,3.949,8.616,6.29,12.756.731,1.292-.386,2.5-1.531,3.333C125.089,172.78,121.28,168.075,121.167,162.276Z" fill="#8a8a8a"/>
            <path d="M56.915,181.433c4.536-.326,8.992-1,13.128-3.047C63.436,184.021,61.241,184.531,56.915,181.433Z" fill="#929292"/>
            <path d="M51.007,186.306c.879-.889,2.68-1.159,2.052-3.059l6.495,3.227C56.164,189.486,53.584,187.936,51.007,186.306Z" fill="#8e8e8e"/>
            <path d="M153.074,200.173c-1.516-.343-3.09-.534-4.3-1.666.056-.743.677-.841,1.2-1.051l5.158,1.827Z" fill="#1f1f1f"/>
            <path d="M36.983,87.379c-4.807-3.2-7.439-8.085-10.1-12.955-.474-10.1,9.331-18.222,20.168-14.158,6.032,2.262,8.906,8.263,7.825,15.976-.813,5.8-5.764,10.223-12.44,10.984C40.638,87.432,38.8,87.337,36.983,87.379Z" fill="#fcfcfc"/>
            <path d="M68.779,78.06c4.62-2.5,9.741-1.267,11.993,2.166,1.5,2.28-1.542,6.984-6.944,10.5-.514-2.378,1.308-3.681,2.132-5.256,2.464-4.712,2.033-5.777-3.285-6.936C71.73,78.323,70.746,78.29,68.779,78.06Z" fill="#1d1d1d"/>
            <path d="M67.033,110.716,67,115.357c-1.258-2.223-.829-4.563-.186-6.929Z" fill="#7d7d7d"/>
            <path d="M149.973,197.456l-1.2,1.051c-2.36-.6-4.7-1.3-7.084-1.767-8.495-1.646-11.466-5.214-11.514-14,1.172-1.309,1.26.262,1.785.672l-.095.029c1.865,6.686,6.635,9.807,13.185,10.743Z" fill="#0c0c0c"/>
            <path d="M145.05,194.18c-6.513,2.419-12.277-2.494-13.185-10.743,2.806,3.829,5.442,7.8,10.851,8.382C143.569,191.911,144.276,193.359,145.05,194.18Z" fill="#939393"/>
            <path d="M131.96,183.408l-1.785-.672c.035-.743-.2-1.949.886-1.757S131.9,182.486,131.96,183.408Z" fill="#b1b1b1"/>
            <path d="M40.906,83.524c-6.435.066-10.723-3.533-10.8-9.066-.089-6.1,5.2-11.723,11.141-11.849A10.672,10.672,0,0,1,51.971,73.38C51.943,79.473,47.6,83.456,40.906,83.524Z" fill="#454545"/>
            <path d="M45.232,69.242c.006,1.049-.122,2.018-1.516,1.961a1.961,1.961,0,0,1-1.9-1.884c-.2-1.186.4-1.818,1.6-1.886C44.7,67.361,45.107,68.152,45.232,69.242Z" fill="#f1f1f1"/>
        </g>
        <g id="frame-2" transform="" class="animated">
            <path d="M0,82.256A25.482,25.482,0,0,1,7.692,69.944C9.771,68.175,11.034,65.46,9.52,62.8,4.646,54.213,11.689,35.3,19.1,29.947c5.576-4.027,9.352-9.245,12.6-15.113,3.875-7,8.918-12.259,17.944-11.666,3.053.2,4.351.789,4.47,4.2.211,6.061,3.794,7.729,9.561,4.956,4.411-2.121,7.478-5.99,11.432-8.711A17.815,17.815,0,0,1,83.676.082c7.52-.7,11.979,3.024,12.342,10.657.2,4.283.34,8.435-2.785,12.19-2.562,3.077-1.4,4.9,2.891,5.282,4.442.394,9-.667,13.341,1.005,1.38.531,3.28.718,4.02,1.734,3.445,4.728,5.324,1.624,7.421-1.173,1.373-1.833,2.409-4.059,5-4.568,2.654-.26,2.186,1.615,1.475,2.738-1.5,2.372-1.075,4.987-1.479,7.491-3.178,6.075-6.814,11.95-8.476,18.723-.427,1.742-1.05,3.472-.284,5.279a7.934,7.934,0,0,1,.339,2.095c-1.707,5.341-5.671,9.218-8.864,13.591a2.848,2.848,0,0,1-2.225.99c-10.527.421-19.26,5.673-28.084,10.568-4.786,2.655-6.319,2.1-7.121-3.353a4.014,4.014,0,0,0-1.072-2.692c-1.522-1.327-2.437-2.835-1.268-4.788,1.229-2.053,3.464-2.228,5.338-1.789,4.429,1.039,8.506.3,12.663-1.237,7.825-2.9,9.457-11.3,3.076-16.773-1.872-1.606-3.95-3.083-1.613-5.621,1.47-1.6,3.467-.539,5.214-.2,5.116.982,9.658,0,13.129-4.066,2-2.338,3.445-5.138,2.209-8.271-1.283-3.254-4.427-3.057-7.26-3.141a35.205,35.205,0,0,0-11.37,1.146c-3.306,1-4.89-.373-6.33-3.64-2.189-4.967-2.139-8.657,2.55-12.04,1.9-1.367,2.255-4.019,2.459-6.372.21-2.421-.192-4.751-2.359-6.216-2.307-1.56-4.49-.537-6.477.826-3.023,2.074-6.184,4.131-8.007,7.394C69.2,20.992,64.71,22.517,59.4,21.5c-4.99-.958-8.4.782-11.064,4.761a7.8,7.8,0,0,1-2.4,2.5c-1.659.986-3.408,1.591-5.038.036-1.519-1.447-.868-3.054-.021-4.562,1.466-2.611,3.63-4.784,4.836-7.553.655-1.5,1.624-3.283.008-4.584-1.654-1.332-3.135.067-4.419,1.086a20.849,20.849,0,0,0-6.446,9.341,18.221,18.221,0,0,1-5.758,7.908C16.986,40.455,12.5,52.932,17.66,68.251c-.422,3.243-1.509,5.929-4.673,7.663-2.232,1.223-3.37,3.612-4.091,6.078-2.091,7.152,1.314,17.51,7.228,22.124,3.246,2.533,6.182,2.869,9.944.386,6.708-4.428,14.1-7.287,22.428-6.6,1.19.326,1.822,1.413,2.785,2.044,5.216,3.42,5.262,3.427,2.944,9.532-.934,2.461.235,4.134,1.74,5.8,2.588,2.872,6.52,5.308,1.79,9.817-1.434,1.367.859,2.837,2.187,2.944,9.177.742,15.125,8.675,23.97,10.484,3.742.766,5.135,5.813,7.733,8.8,3.291,3.784.222,7.14-1.543,10.414-2.267,4.205-4.743,8.292-7.33,12.319-1.528.862-2.764,2.341-4.737,2.239-2.8-.23-5.584-.8-8.4.057-3.08.937-5.436,2.38-5.634,6.048-.171,3.18-1.84,4.251-5.049,3.567-5.166-1.1-12.824,3.259-15.02,8.264-1.24,2.825-.246,4.254,2.736,4.018,3.475-.275,6.88-1.133,10.31-1.745a37.533,37.533,0,0,1,13.371-.25c3.321.6,5.626-.62,7.943-2.935,4-4,7.024-9.284,13.725-9.923,2.755-.262,2.449-3.091,1.032-4.7-4.369-4.974-3.234-9.666-.676-15.129,2.779-5.934,5.319-12.222-1.148-18.165-2.983-2.741,1.148-5.245,2.008-7.88a4.449,4.449,0,0,1,2.7-1.849c5.265.879,10.591-2.087,15.829.242,1.96,1.764,1.333,3.472-.068,5.224-7.06,8.826-8.009,19.122-6.943,29.815a43.165,43.165,0,0,1,.175,8.922c-.418,3.967.676,7.745,2.311,11.406a7.3,7.3,0,0,0,5.572,4.636,40.673,40.673,0,0,1,15.177,5.736,1.1,1.1,0,0,1-.092,1.438c-8.131,1.528-15.105-2.449-22.436-4.722-1.883-.584-2.843-2.045-3.744-3.724-3.316-6.174-11.612-6.683-16.184-1.06a19.176,19.176,0,0,0-1.1,1.658c-5.894,9.029-5.9,9.049-16.083,6.575a17.146,17.146,0,0,0-9.79.148c-6.657,2.256-13.679,2.241-20.539,3.218-2.629.374-3.844.2-3.4-3.675,1.543-13.527,11.329-19.551,21.58-25.242,5.515-3.061,11.446-5.242,17.945-5a4.4,4.4,0,0,0,4.231-2.107c2.746-4.535,5.358-9.152,8.083-13.7a1.953,1.953,0,0,0-.33-2.646c-2.206-2.484-4.356-5.014-7.541-6.337-8.972-3.727-17.9-7.572-26.929-11.142-2.863-1.132-4.61-2.053-2.935-5.57,1.33-2.791-.06-5.356-1.551-7.908-2.039-3.491-5.312-6.732-2.337-11.549.967-1.566.22-3.427-2.821-2.631-5.876,1.538-11.546,3.024-14.044,9.5-1.159,3-3.791,2.357-5.958,1.777-11.2-3-18.224-10.183-21.063-21.449A15.719,15.719,0,0,0,0,91.256Z"/>
            <path d="M123.079,35.454c-.405-3.787,3.353-6.425,2.828-10.246a71.162,71.162,0,0,1,20.313-11.062c3.034-1.041,4.183-.942,4.961,2.71,1.871,8.772-.132,17.109-1.735,25.549-.118.62-.235,1.24-.489,2.582,8.015-3.92,15.339-8.071,23.753-9.233a37.722,37.722,0,0,1,4.435-.48c8.936-.165,8.853-.169,6.26,8.683-2.181,7.446-6.443,13.716-10.772,19.978-1.478,2.137-3.335,4.074-4.078,7.041,4.487.559,8.774.072,12.938,1.293,6.88,2.018,8.552,5.783,4.565,11.724a53.5,53.5,0,0,1-19.942,18.315,3.27,3.27,0,0,1-3.978-1.548c-.921-2.769,1.23-3.9,2.9-5.161a53.13,53.13,0,0,0,11.909-12c2.746-3.944,1.735-6.169-3.074-6.678a38.837,38.837,0,0,0-20.971,3.151c-2.031.951-4.016,2.605-6.561,1.423a3.025,3.025,0,0,1-1.462-1.635c-.594-2.174.713-3.4,2.248-4.549a27.331,27.331,0,0,1,7.076-3.664,23.628,23.628,0,0,0,12.569-10.179c2.567-4.292,5.468-8.372,8-12.68.974-1.658,2.914-3.588,1.7-5.4-1.273-1.908-3.7-.566-5.556-.176A62.963,62.963,0,0,0,143.072,57.2c-.765.644-1.506,1.316-2.286,1.943-1.283,1.03-2.678,1.471-4.1.4-1.4-1.056-1.455-2.51-.86-4.054,1.321-3.43,3.14-6.623,4.719-9.929a46.915,46.915,0,0,0,4.9-16.686c.148-1.954.435-4.232-1.639-5.419s-3.8.331-5.5,1.343a40.808,40.808,0,0,0-10.639,8.993C126.443,35.262,125.255,36.678,123.079,35.454Z" fill="#090909"/>
            <path d="M162.784,100.16l3.333,2.149c-7.259,5.171-15.242,8.444-24.205,8.91-2.891.15-5.455,1.076-6.694,3.546-2.189,4.367-6.123,7.782-6.771,13.017-.4,3.214-4.132,4.6-4.81,7.948-.668,3.295-1.089,5.56,3.52,3.786,2.994-1.152,4.029.6,3.786,3.246a9.554,9.554,0,0,1-1.289,4.7c-3.447,4.594-1.536,10.656-4.516,15.388-.793,1.259.823,2.7,1.634,3.946,4.59,7.035,11.632,11.171,18.4,15.648,2.071,1.371,4.148,2.756,6.073,4.319,3.949,3.207,3.579,6.538-1.054,8.8-5.376,2.623-10.949,4.577-17.109,3.587a8.554,8.554,0,0,0-1.1-.717c-2.049-1.061-5.265-.321-5.784-3.754a2.662,2.662,0,0,1,1.109-1.79c1.474-1.25,3.144-.717,4.758-.471a26.657,26.657,0,0,0,7.932.138c1.455-.214,3.188-.393,3.536-2.184.314-1.617-1.275-2.195-2.314-2.914-5.989-4.147-12.37-7.75-17.307-13.3a32.15,32.15,0,0,1-4.5-6.51c-1.508-2.873-1.9-5.38.313-8.255,2.343-3.048,2.335-7.08,3.727-10.618-1.913-.584-2.64.809-3.69,1.462-3.59,2.232-6.424.864-6.96-3.416a14.229,14.229,0,0,1,2.015-8.592c1.314-2.43,1.459-4.655-.077-6.969-.574-2.332.673-3.817,2.428-4.976,5.877-3.878,9.84-9.383,12.754-15.6a9.443,9.443,0,0,1,7.845-5.8c7.06-1.049,14.1-2.195,20.608-5.421C159.886,98.7,161.578,98.312,162.784,100.16Z" fill="#010101"/>
            <path d="M133.006,198.262a4.476,4.476,0,0,0,.072.883l-5.189-.05a6.182,6.182,0,0,0-.015-.681C129.533,196.611,131.275,197.618,133.006,198.262Z" fill="#6d6d6d"/>
            <path d="M162.784,100.16a62.1,62.1,0,0,1-26.08,7.055c-1.636.057-2.8.4-3.481,2.081-3.384,8.406-8.25,15.634-16.343,20.274-.427.245-.516,1.079-.762,1.639-.537,2.366-2.068,2.614-4.051,1.9l-15.732,1.007c-12.211-.662-20.568-6.933-25.846-17.719-.8-1.639-1.287-3.408-2.142-5.006-.344-.969-.938-1.835-1.312-2.8a8.065,8.065,0,0,0,.818,1.614c.244.89.851,1.608,1.123,2.485C72.375,123,79.3,129.743,89.53,133.226c1.536.523,3.257.788,4.407,2.152-2.431,3.48-.952,5.64,2.328,7.405,2.289,1.232,2.858,2.844,2.045,5.743-1.548,5.518-2.387,11.2-5.653,16.13-1.951,2.944-.491,5.374,1.71,7.451,1.564,1.476,2.857,2.791,3.257,5.254.587,3.617.7,5.644-3.965,4.827-6.168-1.08-9.379,3.654-12.539,7.534-3.505,4.3-6.522,6.847-12.862,4.923-6.551-1.988-13.4,1.009-20.1,1.953-.162.023-.315.13-.476.144-2.862.24-6.674,2.22-8.319-.323-1.8-2.786.991-5.941,2.871-8.44a27.488,27.488,0,0,1,8.527-7.576c3.665-2.047,7.467-4.911,10.667.877,1.547-2.789-2.93-5.08.17-7.576a19.788,19.788,0,0,1,15.357-4.315c1.739.062,3.821,1.711,4.947-1.067-1.073-.888-.52-1.665.1-2.531,1.531-2.151,3.582-4.158,4.361-6.567,1.233-3.814,7.085-6.861,1.986-12.024-3.059-3.1-4.825-7.6-10.022-7.958a3.439,3.439,0,0,1-1.427-.384c-6.911-3.934-13.583-8.256-21.664-9.769-3.172-.594-3.6-3.3-2.2-6.252,1.411-2.972,3.781,1.242,5.172-1.463-.791-1.989-2.947-3.461-4.869-5.133-4.818-4.192-4.839-4.612-.552-9.344.737-.813,1.42-1.675,2.384-2.819-2.808-1.405-8.285,1.514-7.224-4.7-.555-.807-1.562-1.438-1.463-2.522.306-3.343-1.995-3.988-4.468-4.926-2.351-.891-6.127-.652-5.452-5,2.083-2.02,4.954-1.393,7.416-2.009,6.893-1.725,11.979-10,8.218-16.5a10.25,10.25,0,0,0-2.022-3.687c-3.15-4.076-7.37-4.337-11.934-3.375-5.426,1.145-7.721,5.293-9.491,9.929-.488,1.278-.046,2.92-1.5,3.828-5.485.05-10.544-2.824-12.1-6.863C9.11,50.9,15.837,37.846,29.162,27.14c2.3-1.845,2.716-4.463,3.829-6.786,2.664-5.561,6-10.331,12.113-12.565,3.445-1.258,4.914-.454,4.79,3.433-.13,4.092-2.09,7.285-4.268,10.441-1.389,2.013-2.921,3.927-4.694,6.292,4.144-.1,5.566-3.012,7.129-5.3,2.639-3.871,6.1-4.966,10.371-3.909,4.81,1.191,8.476.642,11.48-4.124a29.657,29.657,0,0,1,11.978-10.3c4.1-2.067,7.534-.514,9.02,3.79,1.935,5.6.256,12.287-4.488,15.739-2.23,1.623-3.155,2.69-.939,4.9.668.665,1.472,1.77,1.359,2.548-.582,3.981,1.826,2.435,3.519,1.992A39.205,39.205,0,0,1,105.2,32.235c6.626.813,8.071,2.843,6.555,9.158-2.124,8.845-10.338,13.6-19.073,11.126-1.36-.385-2.664-1.39-4.258-.8.182.347.275.833.5.9,9.327,2.934,7.173,10.457,6.886,17.215a4.2,4.2,0,0,1-.491,1.906c-1.154,1.944-15.947,6.37-18.125,5.523-2.6-1.012-5.233-2.164-8.042.333,2.53,1.056,5.193.679,7.435,2.477C76.052,82.4,72.6,83.5,73.26,87.363a47.781,47.781,0,0,1,24.6-12.143c9.4-1.469,13.113-7.93,18.316-13.6.759-2.654,2.735-3.153,5.1-2.754,2.395.4,2.042,2.492,2.347,4.143,1.011,5.467,1.008,5.467,6.813,4.786,6.847-.8,8.366.619,8.063,7.5a17.282,17.282,0,0,1-.384,2.963c-.735,3.348-.943,6.57,2.381,8.832.427.29.515.848.838,1.177,5.133,5.22,3.26,7.613-1.642,10.348,5.734-3.821,5.865-4.377,2.261-9.6-2.449-3.552-.847-6.212,5.22-8.668a40.686,40.686,0,0,1,32.066-4.979c3.709.9,4.955,2.182,2.46,5.974A63.72,63.72,0,0,1,162.784,100.16Z" fill="#d2d2d2"/>
            <path d="M123.079,35.454a57.186,57.186,0,0,1,19.436-15.936c3.779-1.841,4.878-.408,5.228,3.12.976,9.824-2.011,18.662-6.474,27.19-1.5,2.862-3.577,5.478-4.461,9.506,3.7-3.031,6.735-5.7,9.951-8.125,9.107-6.875,19.594-10.25,30.748-11.89,3.205-.471,4.428.529,2.963,3.691a109.753,109.753,0,0,1-16.985,26.2c-2.165,2.478-5.223,3.484-8.166,4.577-3.455,1.282-6.727,2.794-9.291,5.535-.364.558.2-.077-.207.452-1.863,2.432-3.6,6.3-7.065,4.9-3.518-1.416-1.618-5.089-.918-7.906a13.667,13.667,0,0,0,.152-3.472c-.054-4.952-.481-5.341-5.388-5.063a12.445,12.445,0,0,0-2.973.119c-3.837,1.21-5.207-.73-5.87-4.13-1.06-5.437-1.149-5.419-6.431-4.233-.806.181-1.654-.151-2.445.2-2.969-1.359-.757-3.548-.429-4.974C116.086,48.128,119.525,41.749,123.079,35.454Z" fill="#d2d2d2"/>
            <path d="M112.067,133.112l4.051-1.9c1.557.19,3.18-2.205,4.488-.352,1,1.417-.8,2.665-1.468,3.937-2.428,4.634-5.742,9.079-2.992,15.176,3.929-2.744,6.96-6.7,11.956-7.516,1.153,1.809-.081,3.361-.867,4.487-3.335,4.779-2.106,11.4-6.658,15.729-1.337,1.271.3,3.116,1.075,4.47,3.379,5.918,8.643,9.973,14.114,13.751,3.544,2.447,7.2,4.733,10.889,6.965,3.221,1.952,2.779,3.6-.183,5.255-5.956,3.323-12.171,2.333-18.4,1.108a24,24,0,0,1-8.134-3.875c-1.377-2.048-3.528-2.85-5.67-3.845-2.516-1.169-4.163-3.433-5.493-5.74.891,4.84,2.949,8.09,8.37,8.86,3.762.534,7.063,2.806,9.894,5.49,1.751,1.5,4.629.871,5.967,3.154l-5.132.152c-5.953-1.384-11.18-4.971-17.483-5.47-2.341-.185-4.142-2.363-4.791-4.685-4.62-16.533-6.127-32.965,1.438-49.214C108.245,136.452,110.834,135.444,112.067,133.112Z" fill="#d2d2d2"/>
            <path d="M15.15,68.254c3.444,2.923,8.567,2.6,11.727,6.075a2.777,2.777,0,0,1,1.973.3c1.6,2.157,3.733,3.943,4.568,6.626.644,2.335,4.015,3.088,3.536,6.075,3.09,1.425,6.014,3,9.761,2.123,2.758-.645,3.226,1.728,2.9,3.8a53.024,53.024,0,0,1-1.679,6.128q-7.169,1.893-14.338,3.788c-2.446.65-5.087,1.582-6.4,3.582-3.69,5.625-7.615,2.909-11.276.553C8.253,102.366,3.7,90.067,6.221,81.322c.972-3.373,2.655-6.544,6.182-8.019A4.106,4.106,0,0,0,15.15,68.254Z" fill="#b5b5b5"/>
            <path d="M114.885,60.191c1.021-.538,2.011-1.15,3.069-1.6,5.951-2.543,6.653-2.214,7.074,4.341.228,3.555,1.812,4.708,5.1,4.185,1.64-.26,3.284-.538,4.937-.657,2.568-.185,4.207.738,3.954,3.678-.271,3.143-.538,6.288-.723,9.437-.075,1.267-.763,2.912.634,3.671,1.311.712,2.443-.572,3.51-1.281,1.234-.821,2.393-1.756,3.585-2.642l1.143,1.024c-1.15,1.188-2.262,2.415-3.459,3.554-1.757,1.671-1.72,3.077-.187,5.1,3.363,4.438,2.863,6.466-1.831,9.63-1.375.927-2.9,1.63-4.276,2.558-1.155.781-2.19,1.74-3.334,2.665-1.457-2.354-.25-3.436,1.592-4.354a36.271,36.271,0,0,0,4.784-2.655c2.61-1.839,3.61-4.382.755-6.544-5.148-3.9-6.3-8.352-4.673-14.655,1.482-5.75-.969-7.494-6.935-6.034-2.856.7-5.613,1.8-9.907,3.209,3.984-4.49,3.439-8.419,1.441-11.833-1.127-1.925-3.24.536-4.964.631Z" fill="#0c0c0c"/>
            <path d="M93.937,135.379c-11.987-2.245-21.249-8-25.634-19.981a13.821,13.821,0,0,1-.414-2.892c-.309-.988-.965-2.121.918-2.19,5.266,12.456,13.827,21.1,27.528,23.8Z" fill="#0e0e0e"/>
            <path d="M109.667,53.509c.742,8.191-4.447,13.166-9.007,18.5-.092-4.564,1.059-8.845,1.5-13.236C102.547,54.857,107.208,55.532,109.667,53.509Z" fill="#f2f2f2"/>
            <path d="M81.9,168.321c1.245,1.333,1.218,2.37-.848,2.234a19.471,19.471,0,0,1-4.1-1.167C78.539,168.76,80.513,169.907,81.9,168.321Z" fill="#797979"/>
            <path d="M101.637,137.278a6.2,6.2,0,0,1,.368,1.547c-.042.689-.383,1.318-1.2.934-.227-.107-.316-.866-.2-1.244C100.728,138.115,101.17,137.812,101.637,137.278Z" fill="#bebebe"/>
            <path d="M121.044,189.092l7.028,5.127-1.033.889c-4.8-1.733-9.477-3.729-14.46-5.028-4.595-1.2-6.69-8.578-4.717-14.749C109.259,182.789,113.406,187.613,121.044,189.092Z" fill="#060606"/>
            <path d="M27.7,75.319l-.825-.99c.2-6.772,3.253-11.79,9.588-14.273,5.908-2.315,11.373-.647,15.6,4.148-.885,3.763-3.5,2.515-5.82,1.968-6.189-1.985-10.451-.084-13.105,5.706-.794,1.732-.667,4.068-2.994,4.873C28.961,76.9,28.54,75.755,27.7,75.319Z" fill="#fcfcfc"/>
            <path d="M36.954,87.326A16.991,16.991,0,0,1,32,82.258a2.117,2.117,0,0,1-.39-2.036c2.356-2.432,4.388.513,6.6.385a13.986,13.986,0,0,0,4.606-.062c4.481-1.138,6.415-4.209,6.5-8.628.021-1.142-.2-2.291.51-3.326,1.128-1.189,2.152-2.725,4.106-1.316C57.91,78.006,50.518,87.719,36.954,87.326Z" fill="#fcfcfc"/>
            <path d="M53.932,67.275a3.856,3.856,0,0,0-2.055,3.255c-4.071-.711-5.651-3.449-5.911-7.262,2.146-.434,3.906,1.645,6.095.936A4.454,4.454,0,0,1,53.932,67.275Z" fill="#fbfbfb"/>
            <path d="M66.812,110.385a7.836,7.836,0,0,1-.039-6.122l.239,2.224C67.636,107.822,67.992,109.143,66.812,110.385Z" fill="#7a7a7a"/>
            <path d="M66.812,110.385l.2-3.9c1.514.847,1.165,2.568,1.794,3.829l-.918,2.189Z" fill="#1c1c1c"/>
            <path d="M121.044,189.092c-8.722.351-11.956-3.025-13.183-13.76C109.771,182.3,116,185.128,121.044,189.092Z" fill="#959595"/>
            <path d="M32.033,80.149,32,82.258q-2.146-3.469-4.294-6.939l2.394.911C32.916,76.464,32.96,78.067,32.033,80.149Z" fill="#fbfbfb"/>
            <path d="M32.033,80.149,30.1,76.23c.086-10.119,5.321-14.4,15.868-12.962a14.532,14.532,0,0,1,5.911,7.262c.233,7.747-1.793,10.683-8.928,12.941a9.194,9.194,0,0,1-4.907-.017C35.3,83.7,33.961,81.388,32.033,80.149Z" fill="#444"/>
            <path d="M38.044,83.454l4.907.017A4.937,4.937,0,0,1,38.044,83.454Z" fill="#fbfbfb"/>
            <path d="M44.356,71.192c-1.935.005-2.493-1.012-2.607-2.209s.706-1.716,1.849-1.712c1.261,0,1.656.878,1.8,1.913C45.555,70.313,45.107,71.056,44.356,71.192Z" fill="#e3e3e3"/>
        </g>
        <g id="frame-3" transform="" class="animated">
            <path d="M0,82.011c1.849-4.181,3.685-8.238,7.36-11.391,2.793-2.4,3.484-5.631,1.482-9.44-2.115-4.024-.725-8.429.172-12.628,1.671-7.824,4.994-14.869,11.644-19.543,5.007-3.519,7.777-8.45,10.655-13.47,3.372-5.883,7.311-11,14.7-12.136,4.946-.758,7.246.689,8.017,5.6.648,4.13,3.3,5.617,7.51,4.407,4.337-1.245,7.234-4.568,10.67-7.117,1.326-.984,2.553-2.11,3.926-3.018C82.324-.817,88.8-1.083,92.651,2.527,96.3,5.94,97.474,15.8,94.772,20.807c-.628,1.163-1.656,2.12-2.22,3.3-1.049,2.207-.913,3.8,2.205,3.931,3.813.16,7.613.624,11.42.933,6.905.56,9.357,2.469,11.587,9.582,6.519-10.958,17.344-15.1,27.961-19.6,3.232-1.369,4.708-1.363,5.59,2.925,1.9,9.264-.7,18-1.977,27.4,3.976-1.865,7.618-3.687,11.35-5.3a47.486,47.486,0,0,1,20.267-4.067c3.663.09,4.51.965,3.693,4.637-1.988,8.941-6.471,16.555-11.625,23.9-1.507,2.147-2.925,4.357-4.71,7.027,4.643,1.2,8.944.1,13.067,1.419,7.8,2.488,9.331,6.094,4.5,12.591A67.673,67.673,0,0,1,147.04,115.5a22.977,22.977,0,0,1-4.927.5c-3.245.09-5.861,1.237-7.264,4.291-1.955,4.257-6.524,7.275-6.026,12.714a1.7,1.7,0,0,1-.73,1.244c-4.778,3.157-3.464,7.472-1.765,11.41,1.2,2.771-1.131,2.126-2,2.865-1.249,1.06-3.354,1.968-2.976,3.61.345,1.5,2.51,1.822,4.149,1.856,2.26.048,4.154,1.091,6.069,2.05,6.209,3.109,6.4,4.347.556,7.828-5.446,3.245-7.367,8.227-8.044,14.022-.685,5.857-3.933,10.838-5.492,16.4a4.64,4.64,0,0,1-5.11,3.3c-11.347-2.387-21.5,2.156-31.99,4.91-2.568.674-5.469,1.857-7.529-1.39-.95-1.5-1.552.114-2.108.591-1.767,1.517-3.327,3.3-5.183,4.686-3.657,2.735-7.476,1.67-8.375-2.68-1.4-6.784-2.439-13.668-3.161-20.559a10.08,10.08,0,0,1,3.439-9c3.718-3.033,5.924-7.056,8.274-11.051,3.614-6.143,6.784-7.437,13.645-5.721a28.933,28.933,0,0,1,4.3,1.119c2.756,1.168,4.185.3,5.3-2.416,1.424-3.469,4.381-5.76,7.233-8.077.953-.775,2.409-1.644,1.11-3.234-1.087-1.331-2.1-.08-3.11.244a3.479,3.479,0,0,0-1.326.631c-5.567,5.245-11.672,4.609-17.661,1.192-8.231-4.7-17.057-7.879-25.932-10.986-2.246-.786-3.38-2.1-2.246-4.351,1.738-3.446.323-6.243-1.091-9.352-1.639-3.6-5.768-6.525-1.674-11.754,2.522-3.221-1.2-6.516-5.571-5.709-5.2.961-9.429,2.922-11.476,8.166-.889,2.276-2.668,2.508-4.888,2.356-9.73-.666-19.285-9.315-22.4-20.53C.793,93.732.969,92.66,0,92.011Z"/>
            <path d="M67.843,116.26c.394,9.643,8.973,19.192,20.369,22.641,1.739.526,3.506.958,5.279,1.439-1.976,4.508-5.631,5.956-11.942,4.562a21.962,21.962,0,0,1-6.513-2.316c-5.593-3.35-10.9-7.057-17.69-7.935-2.331-.3-5.46-1.386-5.094-5.02.43-4.266,3.734-2.41,6.031-2.691a5.486,5.486,0,0,0,1.214-.611c-2.61-2.46-5.033-4.914-7.642-7.153-2.588-2.222-2.555-4.234-.33-6.728,3.374-3.782,7.383-7.209,8.379-12.965-2.759.4-4.372,2.308-6.36,3.548-3.388,2.113-5.126,1.128-5.551-3.011-.932-6.128-5.29-8.386-10.666-9.741-1.713-.432-2.651-1.9-1.6-3.856,1.592-1.694,3.766-.925,5.593-1.067,6.778-.528,11.955-4.4,12.142-10.209.274-8.5-2.655-12.273-9.476-13.7-6.3-1.321-11.842.868-14.717,8.294-.741,1.914-.221,4.213-1.779,5.89-4.943.493-10.973-2.754-12.308-6.619-2.31-8.613-3.946-17.211.693-25.631A28.6,28.6,0,0,1,18.9,38.247c6.81-7.821,14.056-15.269,18.527-24.871,1.129-2.424,3.724-3.765,6.267-4.688,1.813-.658,3.994-2.363,5.533-1.028,1.416,1.228.832,3.859.467,5.755-1.073,5.571-4.632,9.728-8.543,13.654,2.875.579,3.477.776,4.957-1.839,3.327-5.878,8.335-7.182,14.375-6.125,4.052.709,6.783-.475,9.259-3.95A32.206,32.206,0,0,1,81.16,4.922c4.884-2.5,8.386-.995,9.929,4.206,1.7,5.745-.3,12.361-5.2,15.365-2.015,1.236-2.193,2.057-.96,3.737.683.931,1.811,1.924,1.817,2.895.024,3.8,2.005,2.695,4.266,2.208,5.521-1.187,11.064-2.2,16.717-.349,3.669,1.2,5.449,2.714,4.352,7.19-2.429,9.909-8.959,14.546-18.944,12.785-1.2-.212-2.344-1.428-4.073-.259,11.1,4.937,6.767,13.8,5.694,21.789-.232,1.726-1.109,3.366-1.969,5.855,4.5-1.536,8.41-2.541,12.548-2.261,2.132.144,2.866-1.922,3.872-3.429,2.02-3.027,3.826-6.214,7.007-8.305,4.292-2.822,5.051-2.569,6.06,2.38.6,2.955.6,2.955-1.3,7.859,3.346.313,6.009-1.616,8.955-2.28,5.7-1.285,7.975.415,6.641,5.994-1.39,5.813-1.07,10.213,4.085,14.288,3.808,3.009,2.7,5.484-2.746,8.441-4.5,2.443-4.5,2.443-4.224,6.347,2.6-3.378,6.32-4.454,9.245-6.751,3.141-2.466,4.161-5.3,1.12-8.4-2.6-2.644-1.525-4.41.646-6.56,8.263-8.185,25.745-11.362,36.445-6.8,3.2,1.365,1.868,2.743.811,4.459-10.065,16.342-24.785,25.12-43.818,26.5-3.168.23-4.548,1.3-5.782,4.069-3.881,8.694-9.585,15.882-18.331,20.24-.658,1.281-1.435,2.31-3.1,1.464-7.916,1.54-15.686,1.719-23.313-1.633-9.467-4.161-14.5-12.163-18.768-20.913-.374-.233-.771-.428-1.1-.632a.474.474,0,0,0-.1.554A3.681,3.681,0,0,0,67.843,116.26Z" fill="#d2d2d2"/>
            <path d="M146.57,23.01c4.684,16.818-4.78,29.628-11.193,43.414a67.318,67.318,0,0,1,7.115-6.993c2.627-2.036,5.212-4.161,8.014-5.932,8.124-5.135,17.156-7.789,26.567-9.333,3.452-.566,4.805.394,3.149,3.923a112.393,112.393,0,0,1-16.444,25.442,11.591,11.591,0,0,1-4.418,3.138c-6.236,2.432-12.154,5.3-17.065,10-.764.73-2.238,1.529-3.02,1.256-1.536-.536-.939-2.261-.869-3.532.156-2.815.345-5.631.633-8.435.471-4.58-1.841-5.365-5.768-4.656-7.484,1.35-7.635,1.27-8.2-6.472-.268-3.645-1.745-4.122-4.836-2.985-2.1.771-3.96,2.557-6.723,1.849C117.463,44.41,127.113,29.949,146.57,23.01Z" fill="#d2d2d2"/>
            <path d="M71.966,171c3.416-4.528,8.265-5.2,13.392-4.761,3.705.321,6.116-.5,7.512-4.48,1.967-5.6,5.971-9.994,10.718-13.456,3.44-2.508,6.156-5.331,7.386-9.447a3.819,3.819,0,0,1,3.06-1.679c3.982-1.94,5.721.561,7.166,3.627s.742,5.206-2.3,7.039c-4.785,2.879-9.486,6.046-10.022,12.8,5.01-.684,9.358-3.863,14.625-1.265-7.716,7.581-14.517,15.9-24.78,19.289-12.135,4.006-21.473,11.6-29.96,20.7-1.525,1.634-3.108,4.8-5.212,3.993-2.778-1.062-2.822-4.751-2.944-7.492-.193-4.328,1.373-8.439,2.521-12.573.514-1.515.634-3.21,1.987-4.34,1.984-1.786,4.457-3.16,4.657-6.332C69.837,171.52,71.115,171.392,71.966,171Z" fill="#d2d2d2"/>
            <path d="M35.965,87.061c2.766,1.517,5.666,2.976,8.858,2.6,4.816-.571,5.4,1.855,4.514,5.613-.378,1.6-.89,3.167-1.341,4.749-8.076,1.5-16.525,2.1-22.458,8.934-1.207,1.39-2.655,1.187-4.113,1.022-6-.681-13.211-8.726-15.209-16.9-2.124-8.7-.171-15.425,6.065-19.472,1.866-1.211,3.189-2.257,2.9-4.593,3.439,2.934,9.032,1.695,11.733,6.057C32.167,77.379,34.059,82.225,35.965,87.061Z" fill="#b4b4b4"/>
            <path d="M107.976,193.9c-6.968-.211-13.3,2.333-19.706,4.548-2.5.865-5,1.792-7.565,2.4-1.281.3-3.013,1.609-4.021-.285-.984-1.847-.08-3.5,1.354-4.811,3.3-3.006,6.558-6.219,10.731-7.871,8.505-3.367,16.1-8.35,23.948-12.88.428-.247,1.155-.383,1.26-.72,1.984-6.4,8.805-8.865,11.686-14.418.962-1.855,1.94-2.021,3.439-1.532,1.229.4,2.956.692,3.18,2.08.275,1.707-1.689,1.864-2.765,2.31-6.406,2.654-8.889,7.638-8.447,14.207a12.188,12.188,0,0,1-3.19,9.061C115.581,189.881,113.224,193.7,107.976,193.9Z" fill="#d2d2d2"/>
            <path d="M62.942,181.819c-1.584.92-1.253,3.436-3.291,4.036-.17-.317-.419-.571-.427-.832-.083-2.719,10.318-21.594,12.7-22.785,4.524-2.261,8.891-.863,14.318.861-6.067,1.794-12.882-.312-15.335,6.749a15.239,15.239,0,0,1-4.99,9.347C65.086,180.25,64.434,181.51,62.942,181.819Z" fill="#c8c8c8"/>
            <path d="M100.07,72.452c.22-4.765,2.1-9.282,1.807-14.087-.1-1.591,1.6-1.817,2.769-2.37,1.748-.824,3.436-1.774,5.144-2.668C110.095,62.5,109.491,71.165,100.07,72.452Z" fill="#f1f1f1"/>
            <path d="M65.166,179.044l5.742-9.2L71.966,171a9.716,9.716,0,0,1-6.015,8.889A.937.937,0,0,1,65.166,179.044Z" fill="#0c0c0c"/>
            <path d="M107.976,193.9a29.526,29.526,0,0,0,9.9-7.909C115.37,192.956,112.564,195.2,107.976,193.9Z" fill="#989898"/>
            <path d="M67.9,111.192l.945,3.865-1,1.2-1.027-1.207C66.791,113.658,65.2,111.825,67.9,111.192Z" fill="#151515"/>
            <path d="M65.166,179.044l.784.844a5.857,5.857,0,0,1-2.826,3.4l-.183-1.465Z" fill="#0d0d0d"/>
            <path d="M114.034,137.176l-3.06,1.679-.05-1.252c.773-1.039,2-1.121,3.1-1.465Z" fill="#171717"/>
            <path d="M35.965,87.061c-4.124-3.162-6.071-7.968-9.05-11.994-.9-13.463,13.523-19.2,21.8-13.907C54,64.541,56.4,70.706,54.725,77.727c-1.121,4.688-6.295,8.792-11.8,9.214C40.615,87.118,38.286,87.029,35.965,87.061Z" fill="#fdfdfd"/>
            <path d="M73.25,92.394c-.24-3.57,1.691-5.17,2.848-7.008C78.354,81.8,78.126,79.641,73.482,79a28.862,28.862,0,0,1-3.987-1.173c3.543-1.391,10.479-.158,10.881,2.308C81.231,85.381,77.055,88.378,73.25,92.394Z" fill="#1c1c1c"/>
            <path d="M67.9,111.192c-1.3,1.023-.7,2.579-1.081,3.861a9.136,9.136,0,0,1-.5-6.229C67.565,109.233,67.487,110.371,67.9,111.192Z" fill="#909090"/>
            <path d="M41.015,84.006c-5.967.111-10.888-4.327-10.946-9.872A11.287,11.287,0,0,1,41.137,63.012c6.23-.053,10.827,4.374,10.845,10.444C52,79.176,47.1,83.893,41.015,84.006Z" fill="#444"/>
            <path d="M44.009,71.444c-1.336-.061-2.306-.7-2.31-2.062a1.847,1.847,0,0,1,1.781-2.019c1.3-.07,1.64.93,1.888,1.906A1.562,1.562,0,0,1,44.009,71.444Z" fill="#d8d8d8"/>
        </g>
        <g id="frame-4" transform="" class="animated">
            <path d="M88.135,0c8.693,4.163,11.257,14.438,5.757,22.869-.874,1.341-2.423,2.819-1.439,4.461.84,1.4,2.748.535,4.173.682,3.8.392,7.638.547,11.427,1.05,5.592.741,8.219,3.319,9.673,9.271,7.361-4.534,14.118-10.012,22.366-12.8,6.666-2.251,6.565-3.627,7.884,5.373,1.113,7.589-.631,15.182-2.329,22.642a9.145,9.145,0,0,0-.013,1.693c7.121-3.443,13.946-7.042,21.643-8.633,3.517-.727,6.954-.247,10.4-.633,3.513-.393,3.8,1.361,3.233,4.174-1.835,9.15-6.491,16.9-11.778,24.369-1.5,2.125-3.408,4.048-4.163,7.147,4.467.8,8.944-.093,13.23,1.3,6.738,2.189,8.481,6.116,4.229,11.8-11.249,15.044-25.486,25.376-44.809,27.247a7.993,7.993,0,0,0-6.525,3.912c-1.706,2.814-3.029,5.874-5.988,8.739,4.092.382,6.045,1.728,6.531,5.828.584,4.934,2.406,5.248,6.188,1.95,2.289-2,3.523-.214,4.144,1.328a36.067,36.067,0,0,1,2.1,8.088c.355,2.37.844,4.557,2.655,6.217a3.828,3.828,0,0,1,1.357,3.519c-1.134,9.624,3.886,16.484,10.377,22.573,4.365,4.094,9.032,7.866,13.386,11.971,4.02,3.79,3.237,6.768-1.841,8.9-4.051,1.7-8.3,1.368-12.3.821-9.7-1.329-17.786-6.855-26.117-11.5-2.458-1.37-3.456-4.739-3.278-7.505.3-4.639-1.572-7.986-3.99-11.761a39.179,39.179,0,0,1-6.169-20.634,7.3,7.3,0,0,0-3.082-6.2c2.851,11.545-6.473,12.177-13.458,15.919a61.826,61.826,0,0,1,7.284,2.45c2.5,1.215,4.09,2.9.328,4.74a6.681,6.681,0,0,1-1.246-.613c-3.206-1.6-6.7-.96-10.062-1.219-4.422-.34-5.833-2.687-3.833-6.623,1.459-2.871,4.118-4.2,6.786-5.573,1.916-.99,4.052-1.549,5.814-2.81,1.512-1.082,2.238-2.61.994-4.28-1.219-1.636-3.253-1.773-4.294-.291-2.719,3.869-7.122,4.685-10.881,6.632-4.476,2.318-8.852,4.9-11.732,9.022-2.838,4.06-6.187,5.086-10.656,3.75a6.226,6.226,0,0,1-2.912-.577c-3.057-2.161-6.037-2.8-9.316-.427-.545.4-1.611.061-2.381-.341a2.5,2.5,0,0,1-1.014-1.414c1.837-5.047,3.839-6.075,10.018-5.108a3.4,3.4,0,0,1,1.148.285c-5.007-1.759-8.79-.45-11.9,3.938a23.191,23.191,0,0,1-7.425,6.821c-1.467.832-.633,1.291.51,1.5a2.763,2.763,0,0,1,1.375,1.607c.345,1.267-.3,2.214-.971,3.2a48.881,48.881,0,0,0-3.082,4.54c-1.369,2.584-3.9,5.749-1.488,8.173,2.271,2.279,4.855-.9,6.949-2.189a59.619,59.619,0,0,1,27.116-9.19,44.119,44.119,0,0,0,19.8-6.237,3.539,3.539,0,0,1,4.185-.069,2.268,2.268,0,0,1,.714,1.239c-4.236,8.571-13.039,8.951-20.388,9.453-11.76.8-21.077,6.4-30.758,11.751-2.317,1.28-4.434,2.919-6.728,4.246-5.455,3.156-8.1,1.479-8.459-5-.249-4.545,1.341-8.876,1.337-13.321-.008-7.972,3.517-13.408,10.534-16.979,1.709-.869,3.011-2.6,4.4-4.025,7.295-7.5,9.839-7.9,18.962-2.848,5.7,3.156,5.7,3.156,9.717-2.561C68.691,151.21,57.888,145.2,46.082,141.605c-1.864-.568-2.851-1.748-1.895-3.635,2.049-4.045.255-7.183-1.84-10.574-4.294-6.951-4.156-7.025,2.114-12.488,1.365-1.19,2.838-2.321,3.269-4.242-4.709-.061-.729-6.832-4.309-6.375-4.558.582-9.541,1.371-12.792,5.605-5.462,7.115-7.494,7.476-15.609,3.059-11.751-6.4-17.8-21.21-13.782-33.65a19.251,19.251,0,0,1,5.535-8.1c2.859-2.694,3.27-5.407,2.207-9.7C6.044,49.653,9.964,38.8,18.755,30.876A66.98,66.98,0,0,0,32.537,13.589c3.932-6.981,9.6-10.81,17.928-9.888,2.291.254,3.681.62,3.913,3.662.521,6.845,3.8,8.3,9.963,4.914a23.479,23.479,0,0,0,3.636-2.585C72.394,6.015,76.82,2.362,82.135,0Z"/>
            <path d="M71.1,167.025c3.117,1.081,5.289.584,7.48-2.448a32.5,32.5,0,0,1,14.065-10.738c2.951-1.245,6.324-1.637,7.666-5.933.856-2.739,5.389-3.137,7.9-2.36,2.622.813,3.265,4.317,3.572,7.2.37,3.474-2.345,3.923-4.687,4.7-4.1,1.365-8.271,2.613-10.867,6.469-.527.784-1.456,1.567-.958,2.662.585,1.286,1.746.48,2.628.472,3.969-.038,7.976-.326,11.145,2.794a3.139,3.139,0,0,1-3.473,2.174.433.433,0,0,1-.352.5c-1.421,1.6-3.546,1.612-5.345,2.357-7.789,5.846-17.032,6.878-26.268,7.955A48.539,48.539,0,0,0,56.3,188.547c-3.8,2.029-7.455,4.314-11.251,6.342-1.66.887-3.446,3.275-5.188,1.871-1.773-1.428-1.4-4.15-1.012-6.524.949-5.867,4.149-10.375,8.239-14.409.843-3.5,4.237-3.514,6.654-4.871.863-.426,1.925-.273,2.683-1.029C60.662,165.7,65.669,165.277,71.1,167.025Z" fill="#d2d2d2"/>
            <path d="M105.567,172.017l3.473-2.174.179,1.53C108.181,172.6,107.062,173.376,105.567,172.017Z" fill="#262626"/>
            <path d="M99.87,174.876c1.449-1.539,3.373-2,5.346-2.357-.384,2.145-2.251,2.131-3.787,2.6Z" fill="#101010"/>
            <path d="M15.969,71.066c-6.611-17.256-1.424-31.156,12.25-42.532a14.629,14.629,0,0,0,4.173-5.925c2.637-6.225,6.029-11.923,12.945-14.348,3.212-1.126,5.027-.579,4.68,3.441a17.684,17.684,0,0,1-3.2,8.779c-1.8,2.581-3.675,5.1-5.769,8,3.884.079,5.277-2.662,6.712-4.822,2.947-4.436,6.99-5.523,11.7-4.206,4.524,1.265,7.481.01,10.2-3.813a32.856,32.856,0,0,1,12.313-10.7c4.432-2.164,7.818-.554,9.153,4.192,1.657,5.891-.19,12.315-5.067,15.514-2.217,1.454-2.347,2.469-.794,4.19,1.482,1.643,2.475,3.406,1.141,5.946,6.944-1.415,13.1-3.569,19.717-1.924,5.944,1.479,6.954,2.677,5.825,8.448-1.82,9.311-9.157,13.418-20.573,11.52-.921-.25-1.607-.235-1.177,1.042,5,1.471,6.189,4.955,6.129,9.891C96.163,76.7,94.139,79.741,80.927,84.74c1.795-5.367-3.221-8.725-11.258-7.357.98,2.577,3.457,1.361,5.075,2.019,2.71,1.1,3.858,2.345,2.022,5.118-1.376,2.078-2.584,4.267-3.874,6.4A17.826,17.826,0,0,0,70,97.8c2.753-2.18,5.45-4.436,8.271-6.523a33.138,33.138,0,0,1,21.44-6.738c2.828.112,4.228-.769,5.512-3.031a25.892,25.892,0,0,1,6.872-8.457c4.219-3.1,5.381-2.522,6.368,2.547.539,2.768-.474,4.857-1.99,7.19,3.631.2,6.483-1.769,9.641-2.5,5.653-1.3,7.972.484,6.513,6.066-1.552,5.939-.788,10.222,4.219,14.272,3.743,3.027,2.629,5.3-2.866,8.455-2.131,1.223-5.994,1.4-4,6.246,2.456-3.143,5.934-4.326,8.776-6.467,3.243-2.442,4.759-5.4,1.406-8.74-2.737-2.725-1.365-4.467.733-6.516,8.309-8.118,24.922-11.15,36-6.883,3.432,1.322,2.34,2.735,1.111,4.719-10.115,16.339-24.885,25.008-43.923,26.4-2.855.209-4.268.965-5.477,3.72-3.239,7.382-7.714,14-14.779,18.334-18.141,11.132-40.138,2.71-48.626-18.55-.594-1.489-.6-3.254-2.067-4.324A4.464,4.464,0,0,0,63,121.1c2.869,14.821,12.834,22.212,26.85,25.254-2.517,4.554-6.853,6.066-12.863,4.4a27.578,27.578,0,0,1-7.324-2.94c-4.693-2.96-9.091-6.176-14.953-6.808-2.743-.3-6.438-1.269-6.3-5.131.163-4.672,4.4-2.3,6.927-3.147-.932-2.916-3.749-3.754-5.582-5.528-4.907-4.75-4.985-4.914-.484-9.888,2.226-2.46,4.486-4.914,5.847-8.008,1.914-4.35,1.448-5.361-3.252-5.2-3.291.111-4.139-1.177-3.752-4.047-.521-.635-1.482-1.165-1.4-1.987.406-4.1-1.794-5.487-5.449-6.113-2.234-.383-4.711-1.373-3.477-4.708,1.32-1.437,3.054-1.149,4.765-1.357,6.21-.755,10.738-5.575,10.859-11.236.146-6.8-3.43-11.845-9.174-12.949C37.65,60.43,32.206,63.649,29.56,69.923c-.783,1.856-.324,4.085-1.895,5.626C22.976,76.129,19.392,73.807,15.969,71.066Z" fill="#d2d2d2"/>
            <path d="M109.761,70.654c2.446-13.461,7.978-24.573,18.007-33.264,3.146-2.726,6.858-4.62,10.451-6.714,4.29-2.5,5.242-.662,5.617,3.232.741,7.691-.993,14.888-4.239,21.753-2.324,4.916-4.928,9.7-7.407,14.541l1.271,1.241a24.694,24.694,0,0,1,2.6-3.656c10.486-10.265,23.326-15.573,37.654-17.695,2.925-.433,4.2.466,2.815,3.48A105.808,105.808,0,0,1,159.209,80.2c-1.824,2.041-4.42,2.9-6.926,3.788a41.113,41.113,0,0,0-13.463,8.349c-.913.808-2.094,2.117-3.44,1.416-1.4-.73-.782-2.358-.717-3.645.152-2.986.264-5.976.506-8.955.28-3.452-1.5-4.455-4.564-4.035-1.479.2-2.955.449-4.418.748-3.169.648-4.506-.833-4.953-3.84-1.046-7.03-1.1-7.012-7.992-4.377C112.343,69.99,111.387,70.189,109.761,70.654Z" fill="#d2d2d2"/>
            <path d="M122.11,163.008a8.969,8.969,0,0,1-1.5-5.694c.056-6.177-1.619-11.126-8.132-13.568,2.754-2.257,5.676-3.17,7.867-5.3a4.489,4.489,0,0,1,5.548-.667c1.989,1.08,2.119,2.781,2.039,4.677-.193,4.58.539,8.946,3.105,12.855.543.827,1.181,1.846,2.255,1.749,1.161-.1,1.158-1.428,1.559-2.269a9.088,9.088,0,0,0,.286-1.463c.841-3.028,1.545-7.686,4.421-7.606,2.851.079,1.7,4.891,2.548,7.551a47.488,47.488,0,0,1,2.359,15.5c-.106,6.1,4.09,10.728,8.127,14.986A118.591,118.591,0,0,0,168.186,197c3.151,2.344,2.372,3.638-.658,5.123-7.836,3.839-18.858.817-25.4-7.1-8.218-2.147-10.969-8.337-11.4-15.939-.13-2.271-1.41-3.715-2.447-5.287A113.37,113.37,0,0,1,122.11,163.008Z" fill="#d2d2d2"/>
            <path d="M38.139,87.994a11.238,11.238,0,0,0,6.593,1.922c5.053-.011,5.853,1.019,4.621,5.811-.373,1.45-.825,2.879-1.24,4.318-8.2,2.012-17.064,2.181-23.167,9.628-1.768,2.157-4.744.381-6.755-.749C9.381,103.974,5.845,95.957,5.863,86.2c.011-5.9,2.41-10.591,8.039-13.11a5.521,5.521,0,0,0,2.067-2.026c4.386-.6,8,.947,11.072,3.993a2.166,2.166,0,0,1,2.175.89C32.034,80.08,35.392,83.81,38.139,87.994Z" fill="#b5b5b5"/>
            <path d="M66.032,163.051c-4.163-.125-8.547-.866-10.931,3.942-1.236,4.6-5.161,6.219-8.9,8.042l-5.677,4.5c-.225-5.022,3.35-7.005,6.109-9.341,2.011-1.7,4.24-3.1,5.832-5.293,5.405-7.449,9.04-7.841,16.675-1.9A2.676,2.676,0,0,1,66.032,163.051Z" fill="#ccc"/>
            <path d="M107.552,55.607c-1.432,6.4-1.392,12.47-3.509,18.167-.491,1.321-1.132,3.183-2.888,2.786-1.623-.367-1.108-2.256-.973-3.445.553-4.876,1.932-9.612,2.091-14.589C102.347,56.2,105.12,56.515,107.552,55.607Z" fill="#f0f0f0"/>
            <path d="M122.11,163.008c3.876,5.6,8.824,10.54,9.577,17.922.489,4.8,2.649,8.89,7.489,10.9a5.979,5.979,0,0,1,2.954,3.2c-6.073.251-9.486-1.313-10.227-6.756a46.577,46.577,0,0,0-8.37-20.6A7.164,7.164,0,0,1,122.11,163.008Z" fill="#959595"/>
            <path d="M71.1,167.025c-6.924-1.614-11.625,3.313-17.146,5.827-2.124-3.236.752-4.215,2.561-5.677C61.346,164.225,66.21,164.392,71.1,167.025Z" fill="#949494"/>
            <path d="M56.514,167.175c-.805,1.914-2.471,3.44-2.561,5.677l-6.871,2.976-.885-.792,8.9-8.042Z" fill="#101010"/>
            <path d="M63,121.1c-.249-1.574-.542-3.144-.719-4.726-.053-.474.274-.955.753-.274.157.224.073.617.1.932Z" fill="#5f5f5f"/>
            <path d="M66.032,163.051l3.1-.051c.866.261,1.983-.455,2.96,1.184C69.808,163.864,67.831,164.28,66.032,163.051Z" fill="#b1b1b1"/>
            <path d="M90.191,53.871c-1.155-.287-2.747-1.13-2.041-2.049.865-1.126,2.27.115,3.218,1.007Z" fill="#252525"/>
            <path d="M38.139,87.994c-5.921-2.406-7.816-8.266-11.1-12.936-.015-6.65,2.81-11.9,9-14.185,5.045-1.863,10.341-1.778,14.938,2.344,4.65,4.169,4.936,9.392,3.712,14.662-1.123,4.836-4.822,7.868-9.681,9.092A66.6,66.6,0,0,1,38.139,87.994Z" fill="#fdfdfd"/>
            <path d="M40.729,84c-6.261-.025-10.347-3.734-10.514-9.543C30.047,68.623,35.788,62.9,41.7,63.015a10.8,10.8,0,0,1,10.415,10.6C52.176,79.757,47.492,84.029,40.729,84Z" fill="#454545"/>
            <path d="M45.509,70.292c-.2.817-.431,1.711-1.521,1.456A2.4,2.4,0,0,1,41.9,69.383c.014-.868.734-1.361,1.7-1.367C45.191,68.006,45.435,69.062,45.509,70.292Z" fill="#f4f4f4"/>
        </g>
    </g>
</svg>