<svg xmlns="http://www.w3.org/2000/svg" width="94" height="28">
  <defs>
    <linearGradient id="a" x1="0%" x2="100.1%" y1="50%" y2="50%">
      <stop offset="0%" stop-color="#6500FF"/>
      <stop offset="16%" stop-color="#6A09FF"/>
      <stop offset="43%" stop-color="#7623FF"/>
      <stop offset="77%" stop-color="#8A4CFF"/>
      <stop offset="99%" stop-color="#996BFF"/>
    </linearGradient>
    <linearGradient id="b" x1="50%" x2="50%" y1="100%" y2="0%">
      <stop offset="0%" stop-color="#6500FF"/>
      <stop offset="16%" stop-color="#6909FF"/>
      <stop offset="43%" stop-color="#7523FF"/>
      <stop offset="77%" stop-color="#894CFF"/>
      <stop offset="99%" stop-color="#976BFF"/>
    </linearGradient>
    <linearGradient id="c" x1="49.9%" x2="49.9%" y1="100.3%" y2="0%">
      <stop offset="0%" stop-color="#FF6E06"/>
      <stop offset="28%" stop-color="#FF770C"/>
      <stop offset="75%" stop-color="#FF911C"/>
      <stop offset="100%" stop-color="#FFA126"/>
    </linearGradient>
    <linearGradient id="d" x1="57351%" x2="57351%" y1="59860%" y2="35023%">
      <stop offset="0%" stop-color="#FF6E06"/>
      <stop offset="28%" stop-color="#FF770C"/>
      <stop offset="75%" stop-color="#FF911C"/>
      <stop offset="100%" stop-color="#FFA126"/>
    </linearGradient>
  </defs>
  <g fill="none" fill-rule="nonzero">
    <path fill="url(#a)" d="M2 0h-.1a1.4 1.4 0 0 0-.3 0 2.1 2.1 0 0 0-.4.2H1 1v.1H.7v.1L.6.6H.5a1.9 1.9 0 0 0-.1.2L.3.8V1H.2l3.8 2.2.8.9c-.1-.1-.1-.3 0-.4 0-.2.2-.2.3-.2h13c1 0 1.8-.8 1.8-1.7 0-1-.8-1.7-1.7-1.7H2z"/>
    <path fill="url(#b)" d="M22.7 11.3l-6.3 11a.4.4 0 0 1-.8 0l-4-7-.2-.2L4.7 3.5A2.3 2.3 0 0 1 6.6 0H2a1.9 1.9 0 0 0-1 .3H.7a2.4 2.4 0 0 0-.3.4 1.8 1.8 0 0 0-.2.2c-.4.6-.4 1.4 0 2l.1.2 14 24a1.9 1.9 0 0 0 .7.7h.1a2.5 2.5 0 0 0 .4.2 1.7 1.7 0 0 0 .3 0h.2a1.2 1.2 0 0 0 .1 0 2 2 0 0 0 .5-.1l.1-.1a2.3 2.3 0 0 0 .3-.2 1.9 1.9 0 0 0 .5-.5l.4-.7v-.1L25.8 13a1.7 1.7 0 0 0-1.4-2.7c-.7 0-1.3.4-1.6 1z"/>
    <path fill="url(#c)" d="M30.1 0h-6.4c-1 0-1.7.8-1.7 1.9 0 1 .7 1.8 1.7 1.8h3.1c.2 0 .3.3.3.5v.1l-1.5 3a2 2 0 0 0 .6 2.5c.9.5 2 .1 2.4-.8l3.2-6V3v-.2h.1v-.1-.1a2.8 2.8 0 0 0 0-.3h.1V2c0-1-.8-2-1.9-2z"/>
    <path fill="url(#d)" d="M19.9 7.4a.8.8 0 0 0-.7-.4h-6.4c-.3 0-.5.2-.7.4-.1.3-.1.6 0 .8l3.2 5.4c.1.2.4.4.7.4.3 0 .6-.2.7-.4L20 8.2c.1-.2.1-.5 0-.8z"/>
  </g>
</svg>
