<?xml version="1.0" encoding="utf-8"?>
<!-- Generator: Adobe Illustrator 16.0.0, SVG Export Plug-In . SVG Version: 6.00 Build 0)  -->
<!DOCTYPE svg PUBLIC "-//W3C//DTD SVG 1.1//EN" "http://www.w3.org/Graphics/SVG/1.1/DTD/svg11.dtd">
<svg version="1.1" id="图层_1" xmlns="http://www.w3.org/2000/svg" xmlns:xlink="http://www.w3.org/1999/xlink" x="0px" y="0px"
	 width="120px" height="120px" viewBox="2.448 2.643 120 120" enable-background="new 2.448 2.643 120 120" xml:space="preserve">
<rect x="2.448" y="2.643" fill="#E3E7E9" width="120" height="120"/>
<g>
	<path fill="#C6CED6" d="M62.448,31.49c-22.885,0-41.115,18.618-41.115,41.503v49.649h82.23V72.993
		C103.563,50.108,84.946,31.49,62.448,31.49L62.448,31.49z M61.673,29.551l0.775-0.775c0,0,3.104-5.818,8.146-9.309
		c0,0-2.716-1.164-5.043-0.776c0,0,4.267-6.206,10.085-8.921c0,0-11.249,0.776-16.291,11.249c0,0-0.776,1.164-0.776,2.715
		c0,0,4.655-1.939,6.207-2.327C64.776,21.793,62.836,23.345,61.673,29.551z"/>
	<path fill="#FFFFFF" d="M76.8,60.581c0,1.939,1.939,3.491,3.879,3.491c1.552,0,3.104-0.775,3.491-2.327l-7.37-2.328V60.581z
		 M45.77,60.581v-0.775L38.4,62.133c0.775,1.164,1.938,1.939,3.49,1.939C44.218,64.072,45.77,62.521,45.77,60.581L45.77,60.581z"/>
	<path fill="#FFFFFF" d="M90.764,73.381l-13.188-4.654c-4.267-1.551-6.594-6.206-5.042-10.473v-0.388
		c1.551-4.267,6.205-6.594,10.473-5.042l13.963,5.042c-3.49-10.473-17.455-18.618-34.521-18.618S31.03,47.005,27.927,57.866
		l13.576-5.042c4.267-1.552,8.921,0.775,10.473,5.042v0.388c1.552,4.267-0.775,8.922-5.043,10.473l-12.411,4.654h-0.389
		c-0.388,0.389-1.163,0.775-1.163,1.552c0,0.388,0,0.776,0.388,1.164c0,0,0.388,0,0.388,0.388
		c6.594,5.818,16.679,9.697,28.703,9.697c11.637,0,22.109-3.879,28.315-9.697l0.388-0.389c0.389-0.387,0.389-0.775,0.389-1.163
		C91.54,74.156,91.151,73.77,90.764,73.381L90.764,73.381z M55.079,68.339c0-2.327,1.938-3.879,3.878-3.879h6.595
		c1.939,0,3.879,1.939,3.879,3.879v0.388c0,2.328-1.939,3.879-3.879,3.879h-6.594c-1.94,0-3.879-1.939-3.879-3.879V68.339
		L55.079,68.339z M74.085,78.035c-6.594,4.268-13.576,4.268-19.395,1.553c-1.551-0.776-2.715-1.164-3.103-1.939
		C51.2,77.26,51.2,76.484,51.2,76.097s1.163-0.388,1.551-0.388c0,0,0.389,0.388,0.776,0.388c0.775,0.388,1.164,0.775,1.939,1.163
		c5.43,2.328,11.249,2.328,17.454-1.551c0.389-0.389,1.164,0,1.553,0.388C74.474,76.872,74.474,77.648,74.085,78.035z"/>
</g>
</svg>
