<svg xmlns="http://www.w3.org/2000/svg" width="120" height="120" viewBox="2.448 2.643 120 120"><path fill="#E3E7E9" d="M2.448 2.643h120v120h-120z"/><path fill="#C6CED6" d="M62.448 31.49c-22.885 0-41.115 18.618-41.115 41.503v49.649h82.23V72.993c0-22.885-18.617-41.503-41.115-41.503zm-.775-1.939l.775-.775s3.104-5.818 8.146-9.309c0 0-2.716-1.164-5.043-.776 0 0 4.267-6.206 10.085-8.921 0 0-11.249.776-16.291 11.249 0 0-.776 1.164-.776 2.715 0 0 4.655-1.939 6.207-2.327 0 .386-1.94 1.938-3.103 8.144z"/><path fill="#FFF" d="M76.8 60.581c0 1.939 1.939 3.491 3.879 3.491 1.552 0 3.104-.775 3.491-2.327l-7.37-2.328v1.164zm-31.03 0v-.775l-7.37 2.327c.775 1.164 1.938 1.939 3.49 1.939 2.328 0 3.88-1.551 3.88-3.491z"/><path fill="#FFF" d="M90.764 73.381l-13.188-4.654c-4.267-1.551-6.594-6.206-5.042-10.473v-.388c1.551-4.267 6.205-6.594 10.473-5.042l13.963 5.042c-3.49-10.473-17.455-18.618-34.521-18.618S31.03 47.005 27.927 57.866l13.576-5.042c4.267-1.552 8.921.775 10.473 5.042v.388c1.552 4.267-.775 8.922-5.043 10.473l-12.411 4.654h-.389c-.388.389-1.163.775-1.163 1.552 0 .388 0 .776.388 1.164 0 0 .388 0 .388.388 6.594 5.818 16.679 9.697 28.703 9.697 11.637 0 22.109-3.879 28.315-9.697l.388-.389c.389-.387.389-.775.389-1.163-.001-.777-.39-1.163-.777-1.552zm-35.685-5.042c0-2.327 1.938-3.879 3.878-3.879h6.595c1.939 0 3.879 1.939 3.879 3.879v.388c0 2.328-1.939 3.879-3.879 3.879h-6.594c-1.94 0-3.879-1.939-3.879-3.879v-.388zm19.006 9.696c-6.594 4.268-13.576 4.268-19.395 1.553-1.551-.776-2.715-1.164-3.103-1.939-.387-.389-.387-1.165-.387-1.552s1.163-.388 1.551-.388c0 0 .389.388.776.388.775.388 1.164.775 1.939 1.163 5.43 2.328 11.249 2.328 17.454-1.551.389-.389 1.164 0 1.553.388.001.775.001 1.551-.388 1.938z"/></svg>