<svg class="icon" viewBox="0 0 1024 1024" xmlns="http://www.w3.org/2000/svg" width="128" height="128"><defs><style/></defs><path d="M15.515 499.588a493.382 484.073 90 1 0 968.146 0 493.382 484.073 90 1 0-968.146 0z" fill="#E3E7E9"/><path d="M502.69 266.86c-183.078 0-328.92 148.946-328.92 332.025v266.86c86.885 80.68 201.697 130.328 328.92 130.328s242.037-49.649 328.922-130.328v-266.86c0-183.079-148.945-332.024-328.921-332.024zm-6.205-15.515l6.206-6.206s24.824-46.545 65.164-74.472c0 0-21.722-9.31-40.34-6.206 0 0 34.133-49.649 80.679-71.37 0 0-89.988 6.206-130.327 89.988 0 0-6.206 9.309-6.206 21.721 0 0 37.236-15.515 49.648-18.618 0 3.103-15.515 15.515-24.824 65.163z" fill="#C6CED6"/><path d="M617.503 499.588c0 15.515 15.515 27.927 31.03 27.927 12.412 0 24.825-6.206 27.928-18.618l-58.958-18.618v9.309zm-248.242 0v-6.206L310.303 512c6.206 9.31 15.515 15.515 27.927 15.515 18.618 0 31.03-12.412 31.03-27.927z" fill="#FFF"/><path d="M729.212 601.988L623.71 564.752c-34.133-12.413-52.751-49.649-40.34-83.782v-3.103c12.413-34.134 49.65-52.752 83.783-40.34l111.709 40.34C750.933 394.085 639.224 328.92 502.69 328.92s-251.346 62.06-276.17 148.946l108.606-40.34c34.134-12.412 71.37 6.206 83.782 40.34v3.103c12.412 34.133-6.206 71.37-40.34 83.782l-99.296 37.236h-3.103c-3.103 3.103-9.31 6.206-9.31 12.412 0 3.103 0 6.206 3.104 9.31 0 0 3.103 0 3.103 3.102 52.751 46.546 133.43 77.576 229.624 77.576 93.09 0 176.873-31.03 226.521-77.576l3.103-3.103c3.103-3.103 3.103-6.206 3.103-9.309 0-6.206-3.103-9.31-6.206-12.412zm-285.479-40.34c0-18.618 15.515-31.03 31.03-31.03h52.752c15.515 0 31.03 15.515 31.03 31.03v3.104c0 18.618-15.515 31.03-31.03 31.03h-52.751c-15.516 0-31.03-15.515-31.03-31.03v-3.104zm152.049 77.576c-52.752 34.134-108.606 34.134-155.152 12.412-12.412-6.206-21.72-9.309-24.824-15.515-3.103-3.103-3.103-9.309-3.103-12.412s9.31-3.103 12.412-3.103c0 0 3.103 3.103 6.206 3.103 6.206 3.103 9.31 6.206 15.515 9.31 43.443 18.617 89.988 18.617 139.637-12.413 3.103-3.103 9.309 0 12.412 3.103 0 6.206 0 12.412-3.103 15.515z" fill="#FFF"/></svg>