<svg xmlns="http://www.w3.org/2000/svg" viewBox="0 0 200 326"><defs><style>.cls-7{fill:#d63f3b}</style></defs><path d="M298.87 332.22c0-26.43 9-49.41 26.76-68.89a15.34 15.34 0 0 0 4.38-8.5c2.07-13.52 7.67-25.67 15.29-36.94a122.82 122.82 0 0 1 17.25-17.72l-9-.47c-5.33-3.48-10.22-7.23-11.48-14.12-.48-2.63-.07-3.6 2.77-3.59 23.92.13 47.84.16 71.76.22v17.85a57 57 0 0 0-57.6 57.6c.07 31.79 26 57.61 57.54 57.19l.1.48A116.67 116.67 0 0 1 406.09 361c-11.77 25.54-30.47 44.38-55.46 57.1a1.11 1.11 0 0 1-.58-.19c-1.1-.74-2.18-1.51-3.31-2.21-22.07-13.76-36.81-33-44.19-58-2.46-8.37-2.68-16.96-3.68-25.48z" transform="translate(-298.67 -182)" fill="#d63b39"/><path d="M350.63 418.13c25-12.72 43.7-31.57 55.46-57.1a116.67 116.67 0 0 0 10.57-45.7c22.55-1.41 38.94-12.09 48.91-32.46 27.37 35 24.3 89.41-6.9 123.42-1.22 1.33-3.46 2.13-3.14 4.57-1.31-.62-1.65.24-1.9 1.25l.08-.08a1 1 0 0 0-1.15 1l.06-.05-1.5 1.02c-10.55 8.33-22.93 12.33-35.86 14.73a103.23 103.23 0 0 1-42-1.27c-7.73-2.63-15.69-4.76-22.63-9.33z" transform="translate(-298.67 -182)" fill="#070101"/><path d="M416.59 200.07v-17.85c28.18.13 50.36 12.06 66.81 34.6 12.18 16.68 15.93 35.81 14.85 56.88-8.78-6.32-17.87-10.4-28.46-9.77h-52.85c-.08-2-.24-4-.24-6q-.08-28.93-.11-57.86z" transform="translate(-298.67 -182)" fill="#eec75c"/><path d="M350.63 418.13c6.94 4.58 14.9 6.71 22.63 9.36-1.6 10.63-2.5 21.39-5.72 31.73-4.4 14.13-10.51 27.27-21.41 37.71a40.52 40.52 0 0 1-19.93 10.71c-3.68.78-6 .6-5.9-4.62.28-24.94.08-49.88.05-74.83 10.22-2.48 20.55-4.67 29.7-10.26a1.11 1.11 0 0 0 .58.2z" transform="translate(-298.67 -182)" fill="#2694c1"/><path d="M416.94 263.92h52.89a3.5 3.5 0 0 1-.21.74 97.47 97.47 0 0 1-4.06 18.2c-10 20.37-26.36 31-48.91 32.46l-.1-.48z" transform="translate(-298.67 -182)" fill="#dd994b"/><path d="M350.05 417.93c-9.15 5.59-19.47 7.78-29.7 10.26-6.09.75-12.13 1.89-18.31 1.73-2.15-.06-3.38-.41-3.37-3q.17-47.36.2-94.71c1 8.52 1.22 17.11 3.69 25.46 7.38 25 22.12 44.28 44.19 58 1.12.75 2.2 1.52 3.3 2.26z" transform="translate(-298.67 -182)" fill="#eec75d"/><path class="cls-7" d="M465.57 282.87a97.47 97.47 0 0 0 4.06-18.2c17.16 18 25.89 39.57 26.45 64.25.74 32.86-12.13 59.63-37.57 80.38-.87.71-1.63 1.71-3 1.57-.32-2.44 1.92-3.24 3.14-4.57 31.22-34.03 34.29-88.41 6.92-123.43z" transform="translate(-298.67 -182)"/><path d="M353.58 199.71l9 .47a122.82 122.82 0 0 0-17.25 17.72c-8.22-1.39-13.94-5.6-16.14-14-.78-3-.32-4.16 3.09-4.08 7.08.18 14.19-.06 21.3-.11z" transform="translate(-298.67 -182)" fill="#57b14b"/><path class="cls-7" d="M453.67 412.07c.25-1 .58-1.87 1.9-1.25a1.37 1.37 0 0 1-1.9 1.25z" transform="translate(-298.67 -182)"/><path class="cls-7" d="M452.6 413a1 1 0 0 1 1.15-1c.1.89-.45 1-1.15 1z" transform="translate(-298.67 -182)"/><path class="cls-7" d="M451.12 414l1.53-1.12a1.3 1.3 0 0 1-1.53 1.12z" transform="translate(-298.67 -182)"/><path d="M416.94 263.92l-.39 50.93c-31.49.42-57.47-25.4-57.54-57.19a57 57 0 0 1 57.57-57.59q.05 28.94.11 57.89c.01 1.98.17 3.97.25 5.96zm-20.78-22a10.65 10.65 0 0 0 11-10.48 10.73 10.73 0 1 0-21.46-.51 10.71 10.71 0 0 0 10.46 10.96z" transform="translate(-298.67 -182)" fill="#fffefe"/><path d="M396.16 241.89a10.71 10.71 0 0 1-10.49-11 10.73 10.73 0 1 1 21.46.51 10.65 10.65 0 0 1-10.97 10.49zm.16-17.56c-2.29.22-4 1.19-4.21 3.54-.17 2 .94 3.06 3 3.06a3.92 3.92 0 0 0 4.18-3.48c.35-1.96-1.17-2.9-2.97-3.12z" transform="translate(-298.67 -182)" fill="#111212"/><path d="M396.32 224.33c1.8.22 3.32 1.16 3 3.12a3.92 3.92 0 0 1-4.18 3.48c-2.09 0-3.2-1.09-3-3.06.18-2.35 1.86-3.32 4.18-3.54z" transform="translate(-298.67 -182)" fill="#e5e3e3"/></svg>